<?xml version="1.0" encoding="UTF-8" standalone="no"?>
<!-- Generated by graphviz version 2.26.3 (20100126.1600)
 -->

<!-- Title: Mediansuche Pages: 1 -->

<svg
   xmlns:dc="http://purl.org/dc/elements/1.1/"
   xmlns:cc="http://creativecommons.org/ns#"
   xmlns:rdf="http://www.w3.org/1999/02/22-rdf-syntax-ns#"
   xmlns:svg="http://www.w3.org/2000/svg"
   xmlns="http://www.w3.org/2000/svg"
   xmlns:sodipodi="http://sodipodi.sourceforge.net/DTD/sodipodi-0.dtd"
   xmlns:inkscape="http://www.inkscape.org/namespaces/inkscape"
   width="266pt"
   height="192pt"
   viewBox="0.00 0.00 266.00 192.00"
   id="svg3286"
   version="1.1"
   inkscape:version="0.47 r22583"
   sodipodi:docname="kap2mediansuche.svg">
  <metadata
     id="metadata3710">
    <rdf:RDF>
      <cc:Work
         rdf:about="">
        <dc:format>image/svg+xml</dc:format>
        <dc:type
           rdf:resource="http://purl.org/dc/dcmitype/StillImage" />
      </cc:Work>
    </rdf:RDF>
  </metadata>
  <defs
     id="defs3708">
    <inkscape:perspective
       sodipodi:type="inkscape:persp3d"
       inkscape:vp_x="0 : 120 : 1"
       inkscape:vp_y="0 : 1000 : 0"
       inkscape:vp_z="332.5 : 120 : 1"
       inkscape:persp3d-origin="166.25 : 80 : 1"
       id="perspective3712" />
  </defs>
  <sodipodi:namedview
     pagecolor="#ffffff"
     bordercolor="#666666"
     borderopacity="1"
     objecttolerance="10"
     gridtolerance="10"
     guidetolerance="10"
     inkscape:pageopacity="0"
     inkscape:pageshadow="2"
     inkscape:window-width="1061"
     inkscape:window-height="907"
     id="namedview3706"
     showgrid="false"
     inkscape:zoom="1.9666667"
     inkscape:cx="114.89407"
     inkscape:cy="120"
     inkscape:window-x="619"
     inkscape:window-y="0"
     inkscape:window-maximized="0"
     inkscape:current-layer="svg3286" />
  <g
     id="graph1"
     class="graph"
     transform="scale(1 1) rotate(0) translate(4 188)">
    <title
       id="title3289">Mediansuche</title>
    <polygon
       points="-4,5 -4,-188 263,-188 263,5 -4,5"
       id="polygon3291"
       stroke="white"
       fill="white" />
    <!-- a5 -->
    <g
       id="node2"
       class="node">
      <title
         id="title3294">a5</title>
      <ellipse
         cx="3"
         cy="-180"
         rx="3"
         ry="3.5"
         id="ellipse3296"
         d="m 6,-180 c 0,1.933 -1.3431458,3.5 -3,3.5 -1.6568542,0 -3,-1.567 -3,-3.5 0,-1.933 1.3431458,-3.5 3,-3.5 1.6568542,0 3,1.567 3,3.5 z"
         stroke="black"
         fill="none" />
    </g>
    <!-- b5 -->
    <g
       id="node3"
       class="node">
      <title
         id="title3299">b5</title>
      <ellipse
         cx="45"
         cy="-180"
         rx="3"
         ry="3.5"
         id="ellipse3301"
         d="m 48,-180 c 0,1.933 -1.343146,3.5 -3,3.5 -1.656854,0 -3,-1.567 -3,-3.5 0,-1.933 1.343146,-3.5 3,-3.5 1.656854,0 3,1.567 3,3.5 z"
         stroke="black"
         fill="none" />
    </g>
    <!-- c5 -->
    <g
       id="node4"
       class="node">
      <title
         id="title3304">c5</title>
      <ellipse
         cx="87"
         cy="-180"
         rx="3"
         ry="3.5"
         id="ellipse3306"
         d="m 90,-180 c 0,1.933 -1.343146,3.5 -3,3.5 -1.656854,0 -3,-1.567 -3,-3.5 0,-1.933 1.343146,-3.5 3,-3.5 1.656854,0 3,1.567 3,3.5 z"
         stroke="black"
         fill="none" />
    </g>
    <!-- d5 -->
    <g
       id="node5"
       class="node">
      <title
         id="title3309">d5</title>
      <ellipse
         cx="129"
         cy="-180"
         rx="3"
         ry="3.5"
         id="ellipse3311"
         d="m 132,-180 c 0,1.933 -1.34315,3.5 -3,3.5 -1.65685,0 -3,-1.567 -3,-3.5 0,-1.933 1.34315,-3.5 3,-3.5 1.65685,0 3,1.567 3,3.5 z"
         stroke="black"
         fill="none" />
    </g>
    <!-- e5 -->
    <g
       id="node6"
       class="node">
      <title
         id="title3314">e5</title>
      <ellipse
         cx="171"
         cy="-180"
         rx="3"
         ry="3.5"
         id="ellipse3316"
         d="m 174,-180 c 0,1.933 -1.34315,3.5 -3,3.5 -1.65685,0 -3,-1.567 -3,-3.5 0,-1.933 1.34315,-3.5 3,-3.5 1.65685,0 3,1.567 3,3.5 z"
         stroke="black"
         fill="none" />
    </g>
    <!-- f5 -->
    <g
       id="node7"
       class="node">
      <title
         id="title3319">f5</title>
      <ellipse
         cx="213"
         cy="-180"
         rx="3"
         ry="3.5"
         id="ellipse3321"
         d="m 216,-180 c 0,1.933 -1.34315,3.5 -3,3.5 -1.65685,0 -3,-1.567 -3,-3.5 0,-1.933 1.34315,-3.5 3,-3.5 1.65685,0 3,1.567 3,3.5 z"
         stroke="black"
         fill="none" />
    </g>
    <!-- g5 -->
    <g
       id="node8"
       class="node">
      <title
         id="title3324">g5</title>
      <ellipse
         cx="255"
         cy="-180"
         rx="3"
         ry="3.5"
         id="ellipse3326"
         d="m 258,-180 c 0,1.933 -1.34315,3.5 -3,3.5 -1.65685,0 -3,-1.567 -3,-3.5 0,-1.933 1.34315,-3.5 3,-3.5 1.65685,0 3,1.567 3,3.5 z"
         stroke="black"
         fill="none" />
    </g>
    <!-- a4 -->
    <g
       id="node10"
       class="node">
      <title
         id="title3329">a4</title>
      <ellipse
         cx="3"
         cy="-136"
         rx="3"
         ry="3.5"
         id="ellipse3331"
         d="m 6,-136 c 0,1.933 -1.3431458,3.5 -3,3.5 -1.6568542,0 -3,-1.567 -3,-3.5 0,-1.933 1.3431458,-3.5 3,-3.5 1.6568542,0 3,1.567 3,3.5 z"
         stroke="black"
         fill="none" />
    </g>
    <!-- a4&#45;&gt;a5 -->
    <g
       id="edge53"
       class="edge">
      <title
         id="title3334">a4-&gt;a5</title>
      <path
         d="M3,-139.751C3,-145.531 3,-156.908 3,-166.096"
         id="path3336"
         stroke="black"
         fill="none" />
      <polygon
         points="-0.499902,-166.258 3,-176.258 6.5001,-166.258 -0.499902,-166.258"
         id="polygon3338"
         stroke="black"
         fill="black" />
    </g>
    <!-- b4 -->
    <g
       id="node11"
       class="node">
      <title
         id="title3341">b4</title>
      <ellipse
         cx="45"
         cy="-136"
         rx="3"
         ry="3.5"
         id="ellipse3343"
         d="m 48,-136 c 0,1.933 -1.343146,3.5 -3,3.5 -1.656854,0 -3,-1.567 -3,-3.5 0,-1.933 1.343146,-3.5 3,-3.5 1.656854,0 3,1.567 3,3.5 z"
         stroke="black"
         fill="none" />
    </g>
    <!-- b4&#45;&gt;b5 -->
    <g
       id="edge57"
       class="edge">
      <title
         id="title3346">b4-&gt;b5</title>
      <path
         d="M45,-139.751C45,-145.531 45,-156.908 45,-166.096"
         id="path3348"
         stroke="black"
         fill="none" />
      <polygon
         points="41.5001,-166.258 45,-176.258 48.5001,-166.258 41.5001,-166.258"
         id="polygon3350"
         stroke="black"
         fill="black" />
    </g>
    <!-- c4 -->
    <g
       id="node12"
       class="node">
      <title
         id="title3353">c4</title>
      <ellipse
         cx="87"
         cy="-136"
         rx="3"
         ry="3.5"
         id="ellipse3355"
         d="m 90,-136 c 0,1.933 -1.343146,3.5 -3,3.5 -1.656854,0 -3,-1.567 -3,-3.5 0,-1.933 1.343146,-3.5 3,-3.5 1.656854,0 3,1.567 3,3.5 z"
         stroke="black"
         fill="none" />
    </g>
    <!-- c4&#45;&gt;c5 -->
    <g
       id="edge61"
       class="edge">
      <title
         id="title3358">c4-&gt;c5</title>
      <path
         d="M87,-139.751C87,-145.531 87,-156.908 87,-166.096"
         id="path3360"
         stroke="black"
         fill="none" />
      <polygon
         points="83.5001,-166.258 87,-176.258 90.5001,-166.258 83.5001,-166.258"
         id="polygon3362"
         stroke="black"
         fill="black" />
    </g>
    <!-- d4 -->
    <g
       id="node13"
       class="node">
      <title
         id="title3365">d4</title>
      <ellipse
         cx="129"
         cy="-136"
         rx="3"
         ry="3.5"
         id="ellipse3367"
         d="m 132,-136 c 0,1.933 -1.34315,3.5 -3,3.5 -1.65685,0 -3,-1.567 -3,-3.5 0,-1.933 1.34315,-3.5 3,-3.5 1.65685,0 3,1.567 3,3.5 z"
         stroke="black"
         fill="none" />
    </g>
    <!-- d4&#45;&gt;d5 -->
    <g
       id="edge31"
       class="edge">
      <title
         id="title3370">d4-&gt;d5</title>
      <path
         d="M129,-139.751C129,-145.531 129,-156.908 129,-166.096"
         id="path3372"
         stroke="black"
         fill="none" />
      <polygon
         points="125.5,-166.258 129,-176.258 132.5,-166.258 125.5,-166.258"
         id="polygon3374"
         stroke="black"
         fill="black" />
    </g>
    <!-- e4 -->
    <g
       id="node14"
       class="node">
      <title
         id="title3377">e4</title>
      <ellipse
         cx="171"
         cy="-136"
         rx="3"
         ry="3.5"
         id="ellipse3379"
         d="m 174,-136 c 0,1.933 -1.34315,3.5 -3,3.5 -1.65685,0 -3,-1.567 -3,-3.5 0,-1.933 1.34315,-3.5 3,-3.5 1.65685,0 3,1.567 3,3.5 z"
         stroke="black"
         fill="none" />
    </g>
    <!-- e4&#45;&gt;e5 -->
    <g
       id="edge35"
       class="edge">
      <title
         id="title3382">e4-&gt;e5</title>
      <path
         d="M171,-139.751C171,-145.531 171,-156.908 171,-166.096"
         id="path3384"
         stroke="black"
         fill="none" />
      <polygon
         points="167.5,-166.258 171,-176.258 174.5,-166.258 167.5,-166.258"
         id="polygon3386"
         stroke="black"
         fill="black" />
    </g>
    <!-- f4 -->
    <g
       id="node15"
       class="node">
      <title
         id="title3389">f4</title>
      <ellipse
         cx="213"
         cy="-136"
         rx="3"
         ry="3.5"
         id="ellipse3391"
         d="m 216,-136 c 0,1.933 -1.34315,3.5 -3,3.5 -1.65685,0 -3,-1.567 -3,-3.5 0,-1.933 1.34315,-3.5 3,-3.5 1.65685,0 3,1.567 3,3.5 z"
         stroke="black"
         fill="none" />
    </g>
    <!-- f4&#45;&gt;f5 -->
    <g
       id="edge39"
       class="edge">
      <title
         id="title3394">f4-&gt;f5</title>
      <path
         d="M213,-139.751C213,-145.531 213,-156.908 213,-166.096"
         id="path3396"
         stroke="black"
         fill="none" />
      <polygon
         points="209.5,-166.258 213,-176.258 216.5,-166.258 209.5,-166.258"
         id="polygon3398"
         stroke="black"
         fill="black" />
    </g>
    <!-- g4 -->
    <g
       id="node16"
       class="node">
      <title
         id="title3401">g4</title>
      <ellipse
         cx="255"
         cy="-136"
         rx="3"
         ry="3.5"
         id="ellipse3403"
         d="m 258,-136 c 0,1.933 -1.34315,3.5 -3,3.5 -1.65685,0 -3,-1.567 -3,-3.5 0,-1.933 1.34315,-3.5 3,-3.5 1.65685,0 3,1.567 3,3.5 z"
         stroke="black"
         fill="none" />
    </g>
    <!-- g4&#45;&gt;g5 -->
    <g
       id="edge43"
       class="edge">
      <title
         id="title3406">g4-&gt;g5</title>
      <path
         d="M255,-139.751C255,-145.531 255,-156.908 255,-166.096"
         id="path3408"
         stroke="black"
         fill="none" />
      <polygon
         points="251.5,-166.258 255,-176.258 258.5,-166.258 251.5,-166.258"
         id="polygon3410"
         stroke="black"
         fill="black" />
    </g>
    <!-- a3 -->
    <g
       id="node18"
       class="node">
      <title
         id="title3413">a3</title>
      <ellipse
         cx="3"
         cy="-92"
         rx="3"
         ry="3.5"
         id="ellipse3415"
         d="m 6,-92 c 0,1.932997 -1.3431458,3.5 -3,3.5 -1.6568542,0 -3,-1.567003 -3,-3.5 0,-1.932997 1.3431458,-3.5 3,-3.5 1.6568542,0 3,1.567003 3,3.5 z"
         stroke="red"
         fill="none" />
    </g>
    <!-- a3&#45;&gt;a4 -->
    <g
       id="edge51"
       class="edge">
      <title
         id="title3418">a3-&gt;a4</title>
      <path
         d="M3,-95.7514C3,-101.531 3,-112.908 3,-122.096"
         id="path3420"
         stroke="black"
         fill="none" />
      <polygon
         points="-0.499902,-122.258 3,-132.258 6.5001,-122.258 -0.499902,-122.258"
         id="polygon3422"
         stroke="black"
         fill="black" />
    </g>
    <!-- b3 -->
    <g
       id="node19"
       class="node">
      <title
         id="title3425">b3</title>
      <ellipse
         cx="45"
         cy="-92"
         rx="3"
         ry="3.5"
         id="ellipse3427"
         d="m 48,-92 c 0,1.932997 -1.343146,3.5 -3,3.5 -1.656854,0 -3,-1.567003 -3,-3.5 0,-1.932997 1.343146,-3.5 3,-3.5 1.656854,0 3,1.567003 3,3.5 z"
         stroke="red"
         fill="none" />
    </g>
    <!-- a3&#45;&gt;b3 -->
    <g
       id="edge23"
       class="edge">
      <title
         id="title3430">a3-&gt;b3</title>
      <path
         d="M6.28125,-92C14.8329,-92 23.3846,-92 31.9362,-92"
         id="path3432"
         stroke="black"
         fill="none" />
      <polygon
         points="31.9751,-95.5001 41.9751,-92 31.9751,-88.5001 31.9751,-95.5001"
         id="polygon3434"
         stroke="black"
         fill="black" />
    </g>
    <!-- b3&#45;&gt;b4 -->
    <g
       id="edge55"
       class="edge">
      <title
         id="title3437">b3-&gt;b4</title>
      <path
         d="M45,-95.7514C45,-101.531 45,-112.908 45,-122.096"
         id="path3439"
         stroke="black"
         fill="none" />
      <polygon
         points="41.5001,-122.258 45,-132.258 48.5001,-122.258 41.5001,-122.258"
         id="polygon3441"
         stroke="black"
         fill="black" />
    </g>
    <!-- c3 -->
    <g
       id="node20"
       class="node">
      <title
         id="title3444">c3</title>
      <ellipse
         cx="87"
         cy="-92"
         rx="3"
         ry="3.5"
         id="ellipse3446"
         d="m 90,-92 c 0,1.932997 -1.343146,3.5 -3,3.5 -1.656854,0 -3,-1.567003 -3,-3.5 0,-1.932997 1.343146,-3.5 3,-3.5 1.656854,0 3,1.567003 3,3.5 z"
         stroke="red"
         fill="none" />
    </g>
    <!-- b3&#45;&gt;c3 -->
    <g
       id="edge25"
       class="edge">
      <title
         id="title3449">b3-&gt;c3</title>
      <path
         d="M48.2812,-92C56.8329,-92 65.3846,-92 73.9362,-92"
         id="path3451"
         stroke="black"
         fill="none" />
      <polygon
         points="73.9751,-95.5001 83.9751,-92 73.9751,-88.5001 73.9751,-95.5001"
         id="polygon3453"
         stroke="black"
         fill="black" />
    </g>
    <!-- c3&#45;&gt;c4 -->
    <g
       id="edge59"
       class="edge">
      <title
         id="title3456">c3-&gt;c4</title>
      <path
         d="M87,-95.7514C87,-101.531 87,-112.908 87,-122.096"
         id="path3458"
         stroke="black"
         fill="none" />
      <polygon
         points="83.5001,-122.258 87,-132.258 90.5001,-122.258 83.5001,-122.258"
         id="polygon3460"
         stroke="black"
         fill="black" />
    </g>
    <!-- d3 -->
    <g
       id="node21"
       class="node">
      <title
         id="title3463">d3</title>
      <ellipse
         cx="129"
         cy="-92"
         rx="3"
         ry="3.5"
         id="ellipse3465"
         d="m 132,-92 c 0,1.932997 -1.34315,3.5 -3,3.5 -1.65685,0 -3,-1.567003 -3,-3.5 0,-1.932997 1.34315,-3.5 3,-3.5 1.65685,0 3,1.567003 3,3.5 z"
         stroke="red"
         fill="none" />
    </g>
    <!-- c3&#45;&gt;d3 -->
    <g
       id="edge27"
       class="edge">
      <title
         id="title3468">c3-&gt;d3</title>
      <path
         d="M90.2812,-92C98.8329,-92 107.385,-92 115.936,-92"
         id="path3470"
         stroke="black"
         fill="none" />
      <polygon
         points="115.975,-95.5001 125.975,-92 115.975,-88.5001 115.975,-95.5001"
         id="polygon3472"
         stroke="black"
         fill="black" />
    </g>
    <!-- d3&#45;&gt;d4 -->
    <g
       id="edge29"
       class="edge">
      <title
         id="title3475">d3-&gt;d4</title>
      <path
         d="M129,-95.7514C129,-101.531 129,-112.908 129,-122.096"
         id="path3477"
         stroke="black"
         fill="none" />
      <polygon
         points="125.5,-122.258 129,-132.258 132.5,-122.258 125.5,-122.258"
         id="polygon3479"
         stroke="black"
         fill="black" />
    </g>
    <!-- e3 -->
    <g
       id="node22"
       class="node">
      <title
         id="title3482">e3</title>
      <ellipse
         cx="171"
         cy="-92"
         rx="3"
         ry="3.5"
         id="ellipse3484"
         d="m 174,-92 c 0,1.932997 -1.34315,3.5 -3,3.5 -1.65685,0 -3,-1.567003 -3,-3.5 0,-1.932997 1.34315,-3.5 3,-3.5 1.65685,0 3,1.567003 3,3.5 z"
         stroke="red"
         fill="none" />
    </g>
    <!-- d3&#45;&gt;e3 -->
    <g
       id="edge45"
       class="edge">
      <title
         id="title3487">d3-&gt;e3</title>
      <path
         d="M132.281,-92C140.833,-92 149.385,-92 157.936,-92"
         id="path3489"
         stroke="black"
         fill="none" />
      <polygon
         points="157.975,-95.5001 167.975,-92 157.975,-88.5001 157.975,-95.5001"
         id="polygon3491"
         stroke="black"
         fill="black" />
    </g>
    <!-- e3&#45;&gt;e4 -->
    <g
       id="edge33"
       class="edge">
      <title
         id="title3494">e3-&gt;e4</title>
      <path
         d="M171,-95.7514C171,-101.531 171,-112.908 171,-122.096"
         id="path3496"
         stroke="black"
         fill="none" />
      <polygon
         points="167.5,-122.258 171,-132.258 174.5,-122.258 167.5,-122.258"
         id="polygon3498"
         stroke="black"
         fill="black" />
    </g>
    <!-- f3 -->
    <g
       id="node23"
       class="node">
      <title
         id="title3501">f3</title>
      <ellipse
         cx="213"
         cy="-92"
         rx="3"
         ry="3.5"
         id="ellipse3503"
         d="m 216,-92 c 0,1.932997 -1.34315,3.5 -3,3.5 -1.65685,0 -3,-1.567003 -3,-3.5 0,-1.932997 1.34315,-3.5 3,-3.5 1.65685,0 3,1.567003 3,3.5 z"
         stroke="red"
         fill="none" />
    </g>
    <!-- e3&#45;&gt;f3 -->
    <g
       id="edge47"
       class="edge">
      <title
         id="title3506">e3-&gt;f3</title>
      <path
         d="M174.281,-92C182.833,-92 191.385,-92 199.936,-92"
         id="path3508"
         stroke="black"
         fill="none" />
      <polygon
         points="199.975,-95.5001 209.975,-92 199.975,-88.5001 199.975,-95.5001"
         id="polygon3510"
         stroke="black"
         fill="black" />
    </g>
    <!-- f3&#45;&gt;f4 -->
    <g
       id="edge37"
       class="edge">
      <title
         id="title3513">f3-&gt;f4</title>
      <path
         d="M213,-95.7514C213,-101.531 213,-112.908 213,-122.096"
         id="path3515"
         stroke="black"
         fill="none" />
      <polygon
         points="209.5,-122.258 213,-132.258 216.5,-122.258 209.5,-122.258"
         id="polygon3517"
         stroke="black"
         fill="black" />
    </g>
    <!-- g3 -->
    <g
       id="node24"
       class="node">
      <title
         id="title3520">g3</title>
      <ellipse
         cx="255"
         cy="-92"
         rx="3"
         ry="3.5"
         id="ellipse3522"
         d="m 258,-92 c 0,1.932997 -1.34315,3.5 -3,3.5 -1.65685,0 -3,-1.567003 -3,-3.5 0,-1.932997 1.34315,-3.5 3,-3.5 1.65685,0 3,1.567003 3,3.5 z"
         stroke="red"
         fill="none" />
    </g>
    <!-- f3&#45;&gt;g3 -->
    <g
       id="edge49"
       class="edge">
      <title
         id="title3525">f3-&gt;g3</title>
      <path
         d="M216.281,-92C224.833,-92 233.385,-92 241.936,-92"
         id="path3527"
         stroke="black"
         fill="none" />
      <polygon
         points="241.975,-95.5001 251.975,-92 241.975,-88.5001 241.975,-95.5001"
         id="polygon3529"
         stroke="black"
         fill="black" />
    </g>
    <!-- g3&#45;&gt;g4 -->
    <g
       id="edge41"
       class="edge">
      <title
         id="title3532">g3-&gt;g4</title>
      <path
         d="M255,-95.7514C255,-101.531 255,-112.908 255,-122.096"
         id="path3534"
         stroke="black"
         fill="none" />
      <polygon
         points="251.5,-122.258 255,-132.258 258.5,-122.258 251.5,-122.258"
         id="polygon3536"
         stroke="black"
         fill="black" />
    </g>
    <!-- a2 -->
    <g
       id="node26"
       class="node">
      <title
         id="title3539">a2</title>
      <ellipse
         cx="3"
         cy="-48"
         rx="3"
         ry="3.5"
         id="ellipse3541"
         d="m 6,-48 c 0,1.932997 -1.3431458,3.5 -3,3.5 -1.6568542,0 -3,-1.567003 -3,-3.5 0,-1.932997 1.3431458,-3.5 3,-3.5 1.6568542,0 3,1.567003 3,3.5 z"
         stroke="black"
         fill="none" />
    </g>
    <!-- a2&#45;&gt;a3 -->
    <g
       id="edge9"
       class="edge">
      <title
         id="title3544">a2-&gt;a3</title>
      <path
         d="M3,-51.7514C3,-57.5314 3,-68.9085 3,-78.0962"
         id="path3546"
         stroke="black"
         fill="none" />
      <polygon
         points="-0.499902,-78.258 3,-88.2581 6.5001,-78.2581 -0.499902,-78.258"
         id="polygon3548"
         stroke="black"
         fill="black" />
    </g>
    <!-- b2 -->
    <g
       id="node27"
       class="node">
      <title
         id="title3551">b2</title>
      <ellipse
         cx="45"
         cy="-48"
         rx="3"
         ry="3.5"
         id="ellipse3553"
         d="m 48,-48 c 0,1.932997 -1.343146,3.5 -3,3.5 -1.656854,0 -3,-1.567003 -3,-3.5 0,-1.932997 1.343146,-3.5 3,-3.5 1.656854,0 3,1.567003 3,3.5 z"
         stroke="black"
         fill="none" />
    </g>
    <!-- b2&#45;&gt;b3 -->
    <g
       id="edge13"
       class="edge">
      <title
         id="title3556">b2-&gt;b3</title>
      <path
         d="M45,-51.7514C45,-57.5314 45,-68.9085 45,-78.0962"
         id="path3558"
         stroke="black"
         fill="none" />
      <polygon
         points="41.5001,-78.258 45,-88.2581 48.5001,-78.2581 41.5001,-78.258"
         id="polygon3560"
         stroke="black"
         fill="black" />
    </g>
    <!-- c2 -->
    <g
       id="node28"
       class="node">
      <title
         id="title3563">c2</title>
      <ellipse
         cx="87"
         cy="-48"
         rx="3"
         ry="3.5"
         id="ellipse3565"
         d="m 90,-48 c 0,1.932997 -1.343146,3.5 -3,3.5 -1.656854,0 -3,-1.567003 -3,-3.5 0,-1.932997 1.343146,-3.5 3,-3.5 1.656854,0 3,1.567003 3,3.5 z"
         stroke="black"
         fill="none" />
    </g>
    <!-- c2&#45;&gt;c3 -->
    <g
       id="edge17"
       class="edge">
      <title
         id="title3568">c2-&gt;c3</title>
      <path
         d="M87,-51.7514C87,-57.5314 87,-68.9085 87,-78.0962"
         id="path3570"
         stroke="black"
         fill="none" />
      <polygon
         points="83.5001,-78.258 87,-88.2581 90.5001,-78.2581 83.5001,-78.258"
         id="polygon3572"
         stroke="black"
         fill="black" />
    </g>
    <!-- d2 -->
    <g
       id="node29"
       class="node">
      <title
         id="title3575">d2</title>
      <ellipse
         cx="129"
         cy="-48"
         rx="3"
         ry="3.5"
         id="ellipse3577"
         d="m 132,-48 c 0,1.932997 -1.34315,3.5 -3,3.5 -1.65685,0 -3,-1.567003 -3,-3.5 0,-1.932997 1.34315,-3.5 3,-3.5 1.65685,0 3,1.567003 3,3.5 z"
         stroke="black"
         fill="none" />
    </g>
    <!-- d2&#45;&gt;d3 -->
    <g
       id="edge21"
       class="edge">
      <title
         id="title3580">d2-&gt;d3</title>
      <path
         d="M129,-51.7514C129,-57.5314 129,-68.9085 129,-78.0962"
         id="path3582"
         stroke="black"
         fill="none" />
      <polygon
         points="125.5,-78.258 129,-88.2581 132.5,-78.2581 125.5,-78.258"
         id="polygon3584"
         stroke="black"
         fill="black" />
    </g>
    <!-- e2 -->
    <g
       id="node30"
       class="node">
      <title
         id="title3587">e2</title>
      <ellipse
         cx="171"
         cy="-48"
         rx="3"
         ry="3.5"
         id="ellipse3589"
         d="m 174,-48 c 0,1.932997 -1.34315,3.5 -3,3.5 -1.65685,0 -3,-1.567003 -3,-3.5 0,-1.932997 1.34315,-3.5 3,-3.5 1.65685,0 3,1.567003 3,3.5 z"
         stroke="black"
         fill="none" />
    </g>
    <!-- e2&#45;&gt;e3 -->
    <g
       id="edge65"
       class="edge">
      <title
         id="title3592">e2-&gt;e3</title>
      <path
         d="M171,-51.7514C171,-57.5314 171,-68.9085 171,-78.0962"
         id="path3594"
         stroke="black"
         fill="none" />
      <polygon
         points="167.5,-78.258 171,-88.2581 174.5,-78.2581 167.5,-78.258"
         id="polygon3596"
         stroke="black"
         fill="black" />
    </g>
    <!-- f2 -->
    <g
       id="node31"
       class="node">
      <title
         id="title3599">f2</title>
      <ellipse
         cx="213"
         cy="-48"
         rx="3"
         ry="3.5"
         id="ellipse3601"
         d="m 216,-48 c 0,1.932997 -1.34315,3.5 -3,3.5 -1.65685,0 -3,-1.567003 -3,-3.5 0,-1.932997 1.34315,-3.5 3,-3.5 1.65685,0 3,1.567003 3,3.5 z"
         stroke="black"
         fill="none" />
    </g>
    <!-- f2&#45;&gt;f3 -->
    <g
       id="edge69"
       class="edge">
      <title
         id="title3604">f2-&gt;f3</title>
      <path
         d="M213,-51.7514C213,-57.5314 213,-68.9085 213,-78.0962"
         id="path3606"
         stroke="black"
         fill="none" />
      <polygon
         points="209.5,-78.258 213,-88.2581 216.5,-78.2581 209.5,-78.258"
         id="polygon3608"
         stroke="black"
         fill="black" />
    </g>
    <!-- g2 -->
    <g
       id="node32"
       class="node">
      <title
         id="title3611">g2</title>
      <ellipse
         cx="255"
         cy="-48"
         rx="3"
         ry="3.5"
         id="ellipse3613"
         d="m 258,-48 c 0,1.932997 -1.34315,3.5 -3,3.5 -1.65685,0 -3,-1.567003 -3,-3.5 0,-1.932997 1.34315,-3.5 3,-3.5 1.65685,0 3,1.567003 3,3.5 z"
         stroke="black"
         fill="none" />
    </g>
    <!-- g2&#45;&gt;g3 -->
    <g
       id="edge73"
       class="edge">
      <title
         id="title3616">g2-&gt;g3</title>
      <path
         d="M255,-51.7514C255,-57.5314 255,-68.9085 255,-78.0962"
         id="path3618"
         stroke="black"
         fill="none" />
      <polygon
         points="251.5,-78.258 255,-88.2581 258.5,-78.2581 251.5,-78.258"
         id="polygon3620"
         stroke="black"
         fill="black" />
    </g>
    <!-- a1 -->
    <g
       id="node34"
       class="node">
      <title
         id="title3623">a1</title>
      <ellipse
         cx="3"
         cy="-4"
         rx="3"
         ry="3.5"
         id="ellipse3625"
         d="m 6,-4 c 0,1.9329966 -1.3431458,3.5 -3,3.5 -1.6568542,0 -3,-1.5670034 -3,-3.5 0,-1.9329966 1.3431458,-3.5 3,-3.5 1.6568542,0 3,1.5670034 3,3.5 z"
         stroke="black"
         fill="none" />
    </g>
    <!-- a1&#45;&gt;a2 -->
    <g
       id="edge7"
       class="edge">
      <title
         id="title3628">a1-&gt;a2</title>
      <path
         d="M3,-7.75142C3,-13.5314 3,-24.9085 3,-34.0962"
         id="path3630"
         stroke="black"
         fill="none" />
      <polygon
         points="-0.499902,-34.258 3,-44.2581 6.5001,-34.2581 -0.499902,-34.258"
         id="polygon3632"
         stroke="black"
         fill="black" />
    </g>
    <!-- b1 -->
    <g
       id="node35"
       class="node">
      <title
         id="title3635">b1</title>
      <ellipse
         cx="45"
         cy="-4"
         rx="3"
         ry="3.5"
         id="ellipse3637"
         d="m 48,-4 c 0,1.9329966 -1.343146,3.5 -3,3.5 -1.656854,0 -3,-1.5670034 -3,-3.5 0,-1.9329966 1.343146,-3.5 3,-3.5 1.656854,0 3,1.5670034 3,3.5 z"
         stroke="black"
         fill="none" />
    </g>
    <!-- b1&#45;&gt;b2 -->
    <g
       id="edge11"
       class="edge">
      <title
         id="title3640">b1-&gt;b2</title>
      <path
         d="M45,-7.75142C45,-13.5314 45,-24.9085 45,-34.0962"
         id="path3642"
         stroke="black"
         fill="none" />
      <polygon
         points="41.5001,-34.258 45,-44.2581 48.5001,-34.2581 41.5001,-34.258"
         id="polygon3644"
         stroke="black"
         fill="black" />
    </g>
    <!-- c1 -->
    <g
       id="node36"
       class="node">
      <title
         id="title3647">c1</title>
      <ellipse
         cx="87"
         cy="-4"
         rx="3"
         ry="3.5"
         id="ellipse3649"
         d="m 90,-4 c 0,1.9329966 -1.343146,3.5 -3,3.5 -1.656854,0 -3,-1.5670034 -3,-3.5 0,-1.9329966 1.343146,-3.5 3,-3.5 1.656854,0 3,1.5670034 3,3.5 z"
         stroke="black"
         fill="none" />
    </g>
    <!-- c1&#45;&gt;c2 -->
    <g
       id="edge15"
       class="edge">
      <title
         id="title3652">c1-&gt;c2</title>
      <path
         d="M87,-7.75142C87,-13.5314 87,-24.9085 87,-34.0962"
         id="path3654"
         stroke="black"
         fill="none" />
      <polygon
         points="83.5001,-34.258 87,-44.2581 90.5001,-34.2581 83.5001,-34.258"
         id="polygon3656"
         stroke="black"
         fill="black" />
    </g>
    <!-- d1 -->
    <g
       id="node37"
       class="node">
      <title
         id="title3659">d1</title>
      <ellipse
         cx="129"
         cy="-4"
         rx="3"
         ry="3.5"
         id="ellipse3661"
         d="m 132,-4 c 0,1.9329966 -1.34315,3.5 -3,3.5 -1.65685,0 -3,-1.5670034 -3,-3.5 0,-1.9329966 1.34315,-3.5 3,-3.5 1.65685,0 3,1.5670034 3,3.5 z"
         stroke="black"
         fill="none" />
    </g>
    <!-- d1&#45;&gt;d2 -->
    <g
       id="edge19"
       class="edge">
      <title
         id="title3664">d1-&gt;d2</title>
      <path
         d="M129,-7.75142C129,-13.5314 129,-24.9085 129,-34.0962"
         id="path3666"
         stroke="black"
         fill="none" />
      <polygon
         points="125.5,-34.258 129,-44.2581 132.5,-34.2581 125.5,-34.258"
         id="polygon3668"
         stroke="black"
         fill="black" />
    </g>
    <!-- e1 -->
    <g
       id="node38"
       class="node">
      <title
         id="title3671">e1</title>
      <ellipse
         cx="171"
         cy="-4"
         rx="3"
         ry="3.5"
         id="ellipse3673"
         d="m 174,-4 c 0,1.9329966 -1.34315,3.5 -3,3.5 -1.65685,0 -3,-1.5670034 -3,-3.5 0,-1.9329966 1.34315,-3.5 3,-3.5 1.65685,0 3,1.5670034 3,3.5 z"
         stroke="black"
         fill="none" />
    </g>
    <!-- e1&#45;&gt;e2 -->
    <g
       id="edge63"
       class="edge">
      <title
         id="title3676">e1-&gt;e2</title>
      <path
         d="M171,-7.75142C171,-13.5314 171,-24.9085 171,-34.0962"
         id="path3678"
         stroke="black"
         fill="none" />
      <polygon
         points="167.5,-34.258 171,-44.2581 174.5,-34.2581 167.5,-34.258"
         id="polygon3680"
         stroke="black"
         fill="black" />
    </g>
    <!-- f1 -->
    <g
       id="node39"
       class="node">
      <title
         id="title3683">f1</title>
      <ellipse
         cx="213"
         cy="-4"
         rx="3"
         ry="3.5"
         id="ellipse3685"
         d="m 216,-4 c 0,1.9329966 -1.34315,3.5 -3,3.5 -1.65685,0 -3,-1.5670034 -3,-3.5 0,-1.9329966 1.34315,-3.5 3,-3.5 1.65685,0 3,1.5670034 3,3.5 z"
         stroke="black"
         fill="none" />
    </g>
    <!-- f1&#45;&gt;f2 -->
    <g
       id="edge67"
       class="edge">
      <title
         id="title3688">f1-&gt;f2</title>
      <path
         d="M213,-7.75142C213,-13.5314 213,-24.9085 213,-34.0962"
         id="path3690"
         stroke="black"
         fill="none" />
      <polygon
         points="209.5,-34.258 213,-44.2581 216.5,-34.2581 209.5,-34.258"
         id="polygon3692"
         stroke="black"
         fill="black" />
    </g>
    <!-- g1 -->
    <g
       id="node40"
       class="node">
      <title
         id="title3695">g1</title>
      <ellipse
         cx="255"
         cy="-4"
         rx="3"
         ry="3.5"
         id="ellipse3697"
         d="m 258,-4 c 0,1.9329966 -1.34315,3.5 -3,3.5 -1.65685,0 -3,-1.5670034 -3,-3.5 0,-1.9329966 1.34315,-3.5 3,-3.5 1.65685,0 3,1.5670034 3,3.5 z"
         stroke="black"
         fill="none" />
    </g>
    <!-- g1&#45;&gt;g2 -->
    <g
       id="edge71"
       class="edge">
      <title
         id="title3700">g1-&gt;g2</title>
      <path
         d="M255,-7.75142C255,-13.5314 255,-24.9085 255,-34.0962"
         id="path3702"
         stroke="black"
         fill="none" />
      <polygon
         points="251.5,-34.258 255,-44.2581 258.5,-34.2581 251.5,-34.258"
         id="polygon3704"
         stroke="black"
         fill="black" />
    </g>
  </g>
  <path
     sodipodi:type="arc"
     style="fill:none;stroke:#ff0000;stroke-width:8.80975628;stroke-miterlimit:4;stroke-opacity:0.96078431;stroke-dasharray:none"
     id="path3716"
     sodipodi:cx="330.50848"
     sodipodi:cy="-66.101692"
     sodipodi:rx="43.728813"
     sodipodi:ry="43.728813"
     d="m 374.2373,-66.101692 a 43.728813,43.728813 0 1 1 -87.45763,0 43.728813,43.728813 0 1 1 87.45763,0 z"
     transform="matrix(0.38139535,0,0,0.38139535,7.4456019,121.71088)" />
  <rect
     style="fill:none;stroke:#00ff00;stroke-width:1.20000005;stroke-miterlimit:4;stroke-opacity:0.96078431;stroke-dasharray:1.2, 2.4;stroke-dashoffset:1.20000004"
     id="rect3718"
     width="158.23729"
     height="118.37288"
     x="-3.2000003"
     y="75.254234" />
  <rect
     y="-1.2203434"
     x="111.91864"
     height="119.59322"
     width="158.23729"
     id="rect4492"
     style="fill:none;stroke:#ff9900;stroke-width:1.20000005;stroke-miterlimit:4;stroke-opacity:1;stroke-dasharray:1.2, 2.4;stroke-dashoffset:1.20000004" />
</svg>
