<?xml version="1.0" encoding="UTF-8" standalone="no"?>
<!-- Created with Inkscape (http://www.inkscape.org/) -->

<svg
   xmlns:dc="http://purl.org/dc/elements/1.1/"
   xmlns:cc="http://creativecommons.org/ns#"
   xmlns:rdf="http://www.w3.org/1999/02/22-rdf-syntax-ns#"
   xmlns:svg="http://www.w3.org/2000/svg"
   xmlns="http://www.w3.org/2000/svg"
   xmlns:sodipodi="http://sodipodi.sourceforge.net/DTD/sodipodi-0.dtd"
   xmlns:inkscape="http://www.inkscape.org/namespaces/inkscape"
   width="210mm"
   height="297mm"
   id="svg2"
   version="1.1"
   inkscape:version="0.47 r22583"
   sodipodi:docname="kap4Fluesse4.svg">
  <defs
     id="defs4">
    <marker
       inkscape:stockid="Arrow1Mend"
       orient="auto"
       refY="0.0"
       refX="0.0"
       id="Arrow1Mend"
       style="overflow:visible;">
      <path
         id="path3714"
         d="M 0.0,0.0 L 5.0,-5.0 L -12.5,0.0 L 5.0,5.0 L 0.0,0.0 z "
         style="fill-rule:evenodd;stroke:#000000;stroke-width:1.0pt;marker-start:none;"
         transform="scale(0.4) rotate(180) translate(10,0)" />
    </marker>
    <marker
       inkscape:stockid="Arrow1Lend"
       orient="auto"
       refY="0.0"
       refX="0.0"
       id="Arrow1Lend"
       style="overflow:visible;">
      <path
         id="path3708"
         d="M 0.0,0.0 L 5.0,-5.0 L -12.5,0.0 L 5.0,5.0 L 0.0,0.0 z "
         style="fill-rule:evenodd;stroke:#000000;stroke-width:1.0pt;marker-start:none;"
         transform="scale(0.8) rotate(180) translate(12.5,0)" />
    </marker>
    <inkscape:perspective
       sodipodi:type="inkscape:persp3d"
       inkscape:vp_x="0 : 526.18109 : 1"
       inkscape:vp_y="0 : 1000 : 0"
       inkscape:vp_z="744.09448 : 526.18109 : 1"
       inkscape:persp3d-origin="372.04724 : 350.78739 : 1"
       id="perspective10" />
  </defs>
  <sodipodi:namedview
     id="base"
     pagecolor="#ffffff"
     bordercolor="#666666"
     borderopacity="1.0"
     inkscape:pageopacity="0.0"
     inkscape:pageshadow="2"
     inkscape:zoom="2.8847746"
     inkscape:cx="268.23426"
     inkscape:cy="567.34115"
     inkscape:document-units="px"
     inkscape:current-layer="layer1"
     showgrid="false"
     inkscape:object-paths="true"
     inkscape:snap-intersection-paths="true"
     inkscape:object-nodes="true"
     inkscape:snap-smooth-nodes="true"
     inkscape:snap-midpoints="true"
     inkscape:snap-object-midpoints="false"
     inkscape:snap-bbox="true"
     inkscape:bbox-paths="true"
     inkscape:bbox-nodes="true"
     inkscape:snap-bbox-edge-midpoints="true"
     showguides="true"
     inkscape:guide-bbox="true"
     inkscape:window-width="1512"
     inkscape:window-height="974"
     inkscape:window-x="94"
     inkscape:window-y="3"
     inkscape:window-maximized="0" />
  <metadata
     id="metadata7">
    <rdf:RDF>
      <cc:Work
         rdf:about="">
        <dc:format>image/svg+xml</dc:format>
        <dc:type
           rdf:resource="http://purl.org/dc/dcmitype/StillImage" />
        <dc:title></dc:title>
      </cc:Work>
    </rdf:RDF>
  </metadata>
  <g
     inkscape:label="Ebene 1"
     inkscape:groupmode="layer"
     id="layer1">
    <path
       transform="matrix(0.6451613,0,0,0.6451613,22.013143,218.75976)"
       style="fill:#cccccc;stroke:#000000;stroke-width:1.54999995;stroke-miterlimit:4;stroke-dashoffset:0;stroke-opacity:1"
       d="m 188.24971,447.41388 c 0,8.39321 -3.40202,15.99182 -8.90234,21.49214 -5.50032,5.50032 -13.09894,8.90234 -21.49215,8.90234 -16.78641,0 -30.39448,-13.60807 -30.39448,-30.39448 0,-16.78641 13.60807,-30.39449 30.39448,-30.39449 4.1966,0 8.19456,0.85051 11.83091,2.38855 3.71938,1.56215 6.91736,3.80563 9.60838,6.5587 2.69102,2.75309 4.87508,6.01577 6.56665,9.61634 1.53804,3.63634 2.38855,7.6343 2.38855,11.8309 z"
       id="path2824"
       sodipodi:nodetypes="csssscscc" />
    <text
       xml:space="preserve"
       style="font-size:22px;font-style:normal;font-weight:normal;text-align:start;writing-mode:lr-tb;text-anchor:start;fill:#000000;fill-opacity:1;stroke:none;font-family:Bitstream Vera Sans"
       x="118.06519"
       y="513.41876"
       id="text2828"><tspan
         sodipodi:role="line"
         id="tspan2830"
         x="118.06519"
         y="513.41876">s</tspan></text>
    <path
       transform="matrix(0.6451613,0,0,0.6451613,102.01314,158.75976)"
       style="fill:#cccccc;stroke:#000000;stroke-width:1.54999995;stroke-miterlimit:4;stroke-dashoffset:0;stroke-opacity:1"
       d="m 188.24971,447.41388 c 0,4.19661 -0.85051,8.19456 -2.38855,11.8309 -1.53805,3.63635 -3.76363,6.91108 -6.51379,9.66124 -2.75016,2.75016 -6.02489,4.97574 -9.66124,6.51379 -3.63635,1.53804 -7.63431,2.38855 -11.83091,2.38855 -4.1966,0 -8.19456,-0.85051 -11.8309,-2.38855 -3.63635,-1.53805 -6.91108,-3.76363 -9.66124,-6.51379 -2.75016,-2.75016 -4.97575,-6.02489 -6.51379,-9.66124 -1.53805,-3.63634 -2.38855,-7.63429 -2.38855,-11.8309 0,-4.1966 0.8505,-8.19456 2.38855,-11.83091 1.53804,-3.63634 3.76363,-6.91108 6.51379,-9.66124 5.50031,-5.50032 13.09893,-8.90234 21.49214,-8.90234 8.39321,0 15.99183,3.40202 21.49215,8.90234 2.75016,2.75016 4.97575,6.0249 6.51379,9.66124 1.53805,3.63635 2.38855,7.63431 2.38855,11.83091 z"
       id="path2840"
       sodipodi:nodetypes="csssssssssssssc" />
    <path
       transform="matrix(0.6451613,0,0,0.6451613,102.01314,278.75976)"
       style="fill:#cccccc;stroke:#000000;stroke-width:1.54999995;stroke-miterlimit:4;stroke-dashoffset:0;stroke-opacity:1"
       d="m 188.24971,447.41388 c 0,4.1966 -0.8505,8.19456 -2.38855,11.8309 -1.53804,3.63635 -3.76363,6.91108 -6.51379,9.66124 -2.75016,2.75016 -6.02489,4.97575 -9.66124,6.51379 -3.63635,1.53805 -7.63431,2.38855 -11.83091,2.38855 -16.78641,0 -30.39448,-13.60807 -30.39448,-30.39448 0,-8.3932 3.40202,-15.99183 8.90234,-21.49215 2.75016,-2.75016 6.02489,-4.97574 9.66124,-6.51379 3.63634,-1.53804 7.6343,-2.38855 11.8309,-2.38855 4.1966,0 8.19456,0.85051 11.83091,2.38855 1.81818,0.76902 3.54594,1.70993 5.16294,2.80235 1.617,1.09243 3.12322,2.33636 4.4983,3.71144 1.37508,1.37508 2.61902,2.88131 3.71144,4.4983 1.09242,1.617 2.03333,3.34478 2.80235,5.16295 1.53805,3.63634 2.38855,7.6343 2.38855,11.8309 z"
       id="path2846"
       sodipodi:nodetypes="csssssssssssssc" />
    <path
       style="fill:#cccccc;stroke:#000000;stroke-width:1;stroke-miterlimit:4;stroke-opacity:1;stroke-dashoffset:0"
       d="m 423.46457,507.41388 c 0,10.82994 -8.7794,19.60934 -19.60935,19.60934 -5.41498,0 -10.31731,-2.19485 -13.8659,-5.74344 -3.54859,-3.5486 -5.74344,-8.45093 -5.74344,-13.8659 0,-5.41497 2.19485,-10.31731 5.74344,-13.8659 3.54859,-3.5486 8.45092,-5.74345 13.8659,-5.74345 10.82995,0 19.60935,8.77941 19.60935,19.60935 z"
       id="path2848"
       sodipodi:nodetypes="csssssc" />
    <text
       id="text2850"
       y="515.13751"
       x="399.51001"
       style="font-size:22px;font-style:normal;font-weight:normal;text-align:start;writing-mode:lr-tb;text-anchor:start;fill:#000000;fill-opacity:1;stroke:none;font-family:Bitstream Vera Sans"
       xml:space="preserve"><tspan
         y="515.13751"
         x="399.51001"
         id="tspan2852"
         sodipodi:role="line">t</tspan></text>
    <path
       style="fill:#cccccc;stroke:#000000;stroke-width:1;stroke-miterlimit:4;stroke-opacity:1;stroke-dashoffset:0"
       d="m 343.46457,447.41388 c 0,5.41497 -2.19485,10.3173 -5.74345,13.8659 -3.54859,3.54859 -8.45093,5.74344 -13.8659,5.74344 -2.70749,0 -5.28682,-0.54871 -7.63284,-1.541 -1.17301,-0.49614 -2.28771,-1.10317 -3.33093,-1.80796 -1.04322,-0.70479 -2.01498,-1.50733 -2.90213,-2.39448 -0.88715,-0.88715 -1.68969,-1.85891 -2.39448,-2.90213 -0.70478,-1.04323 -1.31182,-2.15792 -1.80796,-3.33093 -0.99229,-2.34603 -1.541,-4.92536 -1.541,-7.63284 0,-2.70748 0.54871,-5.28681 1.541,-7.63284 0.99229,-2.34603 2.42815,-4.45877 4.20244,-6.23306 3.54859,-3.5486 8.45093,-5.74345 13.8659,-5.74345 10.82995,0 19.60935,8.77941 19.60935,19.60935 z"
       id="path2854"
       sodipodi:nodetypes="csssssssssssc" />
    <path
       transform="matrix(0.6451613,0,0,0.6451613,222.01314,278.75976)"
       d="m 188.24971,447.41388 a 30.394485,30.394485 0 1 1 -60.78897,0 30.394485,30.394485 0 1 1 60.78897,0 z"
       sodipodi:ry="30.394485"
       sodipodi:rx="30.394485"
       sodipodi:cy="447.41388"
       sodipodi:cx="157.85522"
       id="path2856"
       style="fill:#cccccc;stroke:#000000;stroke-width:1.54999995;stroke-miterlimit:4;stroke-opacity:1;stroke-dasharray:none;stroke-dashoffset:0"
       sodipodi:type="arc" />
    <g
       id="g2862"
       transform="translate(-22.705722,70.87024)">
      <text
         id="text2836"
         y="380.55927"
         x="217.66373"
         style="font-size:22px;font-style:normal;font-weight:normal;text-align:start;writing-mode:lr-tb;text-anchor:start;fill:#000000;fill-opacity:1;stroke:none;font-family:Bitstream Vera Sans"
         xml:space="preserve"><tspan
           y="380.55927"
           x="217.66373"
           id="tspan2838"
           sodipodi:role="line">v</tspan></text>
      <text
         id="text2858"
         y="384.55927"
         x="228.81949"
         style="font-size:22px;font-style:normal;font-weight:normal;text-align:start;writing-mode:lr-tb;text-anchor:start;fill:#000000;fill-opacity:1;stroke:none;font-family:Bitstream Vera Sans"
         xml:space="preserve"><tspan
           style="font-size:11px"
           y="384.55927"
           x="228.81949"
           id="tspan2860"
           sodipodi:role="line">1</tspan></text>
    </g>
    <g
       transform="translate(97.294278,70.87024)"
       id="g2868">
      <text
         xml:space="preserve"
         style="font-size:22px;font-style:normal;font-weight:normal;text-align:start;writing-mode:lr-tb;text-anchor:start;fill:#000000;fill-opacity:1;stroke:none;font-family:Bitstream Vera Sans"
         x="217.66373"
         y="380.55927"
         id="text2870"><tspan
           sodipodi:role="line"
           id="tspan2872"
           x="217.66373"
           y="380.55927">v</tspan></text>
      <text
         xml:space="preserve"
         style="font-size:22px;font-style:normal;font-weight:normal;text-align:start;writing-mode:lr-tb;text-anchor:start;fill:#000000;fill-opacity:1;stroke:none;font-family:Bitstream Vera Sans"
         x="228.81949"
         y="384.55927"
         id="text2874"><tspan
           sodipodi:role="line"
           id="tspan2876"
           x="228.81949"
           y="384.55927"
           style="font-size:11px">2</tspan></text>
    </g>
    <path
       style="fill:#cccccc;stroke:#000000;stroke-width:1;stroke-miterlimit:4;stroke-opacity:1;stroke-dashoffset:0"
       d="m 343.46457,567.41388 c 0,10.82994 -8.7794,19.60934 -19.60935,19.60934 -2.70749,0 -5.28681,-0.54871 -7.63284,-1.541 -2.34603,-0.99229 -4.45876,-2.42815 -6.23306,-4.20244 -1.77429,-1.7743 -3.21015,-3.88703 -4.20244,-6.23306 -0.99229,-2.34603 -1.541,-4.92536 -1.541,-7.63284 0,-2.70749 0.54871,-5.28681 1.541,-7.63284 0.99229,-2.34603 2.42815,-4.45877 4.20244,-6.23306 1.7743,-1.7743 3.88703,-3.21016 6.23306,-4.20245 2.34603,-0.99229 4.92535,-1.541 7.63284,-1.541 5.41497,0 10.31731,2.19485 13.8659,5.74345 3.5486,3.54859 5.74345,8.45093 5.74345,13.8659 z"
       id="path2878"
       sodipodi:nodetypes="cssssssssssc" />
    <g
       id="g2880"
       transform="translate(97.294278,190.87024)">
      <text
         id="text2882"
         y="380.55927"
         x="217.66373"
         style="font-size:22px;font-style:normal;font-weight:normal;text-align:start;writing-mode:lr-tb;text-anchor:start;fill:#000000;fill-opacity:1;stroke:none;font-family:Bitstream Vera Sans"
         xml:space="preserve"><tspan
           y="380.55927"
           x="217.66373"
           id="tspan2884"
           sodipodi:role="line">v</tspan></text>
      <text
         id="text2886"
         y="384.55927"
         x="228.81949"
         style="font-size:22px;font-style:normal;font-weight:normal;text-align:start;writing-mode:lr-tb;text-anchor:start;fill:#000000;fill-opacity:1;stroke:none;font-family:Bitstream Vera Sans"
         xml:space="preserve"><tspan
           style="font-size:11px"
           y="384.55927"
           x="228.81949"
           id="tspan2888"
           sodipodi:role="line">4</tspan></text>
    </g>
    <g
       transform="translate(-22.705722,190.87024)"
       id="g2890">
      <text
         xml:space="preserve"
         style="font-size:22px;font-style:normal;font-weight:normal;text-align:start;writing-mode:lr-tb;text-anchor:start;fill:#000000;fill-opacity:1;stroke:none;font-family:Bitstream Vera Sans"
         x="217.66373"
         y="380.55927"
         id="text2892"><tspan
           sodipodi:role="line"
           id="tspan2894"
           x="217.66373"
           y="380.55927">v</tspan></text>
      <text
         xml:space="preserve"
         style="font-size:22px;font-style:normal;font-weight:normal;text-align:start;writing-mode:lr-tb;text-anchor:start;fill:#000000;fill-opacity:1;stroke:none;font-family:Bitstream Vera Sans"
         x="228.81949"
         y="384.55927"
         id="text2896"><tspan
           sodipodi:role="line"
           id="tspan2898"
           x="228.81949"
           y="384.55927"
           style="font-size:11px">3</tspan></text>
    </g>
    <path
       style="fill:none;stroke:#000000;stroke-width:1px;stroke-linecap:butt;stroke-linejoin:miter;stroke-opacity:1;marker-end:url(#Arrow1Mend)"
       d="m 306.53688,455.04672 -83.86331,0"
       id="path2902"
       sodipodi:nodetypes="cc" />
    <path
       style="fill:none;stroke:#000000;stroke-width:1px;stroke-linecap:butt;stroke-linejoin:miter;stroke-opacity:1;marker-end:url(#Arrow1Mend)"
       d="m 343.46457,447.41388 46.52475,46.1341"
       id="path2914"
       sodipodi:nodetypes="cc" />
    <path
       style="fill:none;stroke:#000000;stroke-width:1px;stroke-linecap:butt;stroke-linejoin:miter;stroke-opacity:1;marker-end:url(#Arrow1Mend)"
       d="m 390.4494,520.82566 -46.52475,46.1341"
       id="path2916"
       sodipodi:nodetypes="cc" />
    <path
       style="fill:none;stroke:#000000;stroke-width:1px;stroke-linecap:butt;stroke-linejoin:miter;stroke-opacity:1;marker-end:url(#Arrow1Mend)"
       d="m 323.85522,547.80453 0,-80.78131"
       id="path2918" />
    <path
       style="fill:none;stroke:#000000;stroke-width:1px;stroke-linecap:butt;stroke-linejoin:miter;stroke-opacity:1;marker-end:url(#Arrow1Mend)"
       d="m 221.92357,559.78107 83.86331,0"
       id="path2920"
       sodipodi:nodetypes="cc" />
    <path
       style="fill:none;stroke:#000000;stroke-width:1px;stroke-linecap:butt;stroke-linejoin:miter;stroke-opacity:1;marker-end:url(#Arrow1Mend)"
       d="M 307.59484,458.37765 214.81899,551.1535"
       id="path2922"
       sodipodi:nodetypes="cc" />
    <path
       style="fill:none;stroke:#000000;stroke-width:1px;stroke-linecap:butt;stroke-linejoin:miter;stroke-opacity:1;marker-end:url(#Arrow1Mend)"
       d="m 211.48806,549.34553 0,-83.86331"
       id="path2924"
       sodipodi:nodetypes="cc" />
    <path
       style="fill:none;stroke:#000000;stroke-width:1px;stroke-linecap:butt;stroke-linejoin:miter;stroke-opacity:1;marker-end:url(#Arrow1Mend)"
       d="m 196.22238,465.48222 0,83.86331"
       id="path2926"
       sodipodi:nodetypes="cc" />
    <path
       style="fill:none;stroke:#000000;stroke-width:1px;stroke-linecap:butt;stroke-linejoin:miter;stroke-opacity:1;marker-end:url(#Arrow1Mend)"
       d="m 137.72113,521.27978 46.52475,46.1341"
       id="path2928"
       sodipodi:nodetypes="cc" />
    <text
       xml:space="preserve"
       style="font-size:22px;font-style:normal;font-weight:normal;text-align:start;writing-mode:lr-tb;text-anchor:start;fill:#000000;fill-opacity:1;stroke:none;font-family:Bitstream Vera Sans"
       x="168.09953"
       y="492.76987"
       id="text4338"><tspan
         sodipodi:role="line"
         id="tspan4340"
         x="168.09953"
         y="492.76987"
         style="font-size:14px">4</tspan></text>
    <text
       xml:space="preserve"
       style="font-size:14px;font-style:normal;font-weight:normal;text-align:start;writing-mode:lr-tb;text-anchor:start;fill:#000000;fill-opacity:1;stroke:none;font-family:Bitstream Vera Sans"
       x="142.10808"
       y="555.6701"
       id="text4342"><tspan
         sodipodi:role="line"
         x="142.10808"
         y="555.6701"
         id="tspan4361">13</tspan></text>
    <text
       xml:space="preserve"
       style="font-size:14px;font-style:normal;font-weight:normal;text-align:start;writing-mode:lr-tb;text-anchor:start;fill:#000000;fill-opacity:1;stroke:none;font-family:Bitstream Vera Sans"
       x="177.02121"
       y="512.88507"
       id="text4346"><tspan
         sodipodi:role="line"
         id="tspan4348"
         x="177.02121"
         y="512.88507">10</tspan></text>
    <text
       xml:space="preserve"
       style="font-size:14px;font-style:normal;font-weight:normal;text-align:start;writing-mode:lr-tb;text-anchor:start;fill:#000000;fill-opacity:1;stroke:none;font-family:Bitstream Vera Sans"
       x="213.08572"
       y="512.14191"
       id="text4350"><tspan
         sodipodi:role="line"
         id="tspan4352"
         x="213.08572"
         y="512.14191">4</tspan></text>
    <text
       xml:space="preserve"
       style="font-size:14px;font-style:normal;font-weight:normal;text-align:start;writing-mode:lr-tb;text-anchor:start;fill:#000000;fill-opacity:1;stroke:none;font-family:Bitstream Vera Sans"
       x="269.733"
       y="518.60138"
       id="text4354"><tspan
         sodipodi:role="line"
         id="tspan4356"
         x="269.733"
         y="518.60138">4</tspan></text>
    <text
       xml:space="preserve"
       style="font-size:14px;font-style:normal;font-weight:normal;text-align:start;writing-mode:lr-tb;text-anchor:start;fill:#000000;fill-opacity:1;stroke:none;font-family:Bitstream Vera Sans"
       x="259.82788"
       y="588.14972"
       id="text4358"><tspan
         sodipodi:role="line"
         id="tspan4360"
         x="259.82788"
         y="588.14972">4</tspan></text>
    <text
       xml:space="preserve"
       style="font-size:14px;font-style:normal;font-weight:normal;text-align:start;writing-mode:lr-tb;text-anchor:start;fill:#000000;fill-opacity:1;stroke:none;font-family:Bitstream Vera Sans"
       x="325.42554"
       y="512.14191"
       id="text4362"><tspan
         sodipodi:role="line"
         id="tspan4364"
         x="325.42554"
         y="512.14191">7</tspan></text>
    <text
       xml:space="preserve"
       style="font-size:14px;font-style:normal;font-weight:normal;text-align:start;writing-mode:lr-tb;text-anchor:start;fill:#000000;fill-opacity:1;stroke:none;font-family:Bitstream Vera Sans"
       x="366.55463"
       y="553.22278"
       id="text4366"><tspan
         sodipodi:role="line"
         id="tspan4368"
         x="366.55463"
         y="553.22278">4</tspan></text>
    <text
       xml:space="preserve"
       style="font-size:14px;font-style:normal;font-weight:normal;text-align:start;writing-mode:lr-tb;text-anchor:start;fill:#000000;fill-opacity:1;stroke:none;font-family:Bitstream Vera Sans"
       x="366.01218"
       y="467.80417"
       id="text4370"><tspan
         sodipodi:role="line"
         id="tspan4372"
         x="366.01218"
         y="467.80417">20</tspan></text>
    <text
       xml:space="preserve"
       style="font-size:14px;font-style:normal;font-weight:normal;text-align:start;writing-mode:lr-tb;text-anchor:start;fill:#000000;fill-opacity:1;stroke:none;font-family:Bitstream Vera Sans"
       x="259.07788"
       y="436.88406"
       id="text4374"><tspan
         sodipodi:role="line"
         id="tspan4376"
         x="259.07788"
         y="436.88406">8</tspan></text>
    <text
       xml:space="preserve"
       style="font-size:22px;font-style:normal;font-weight:normal;text-align:start;writing-mode:lr-tb;text-anchor:start;fill:#000000;fill-opacity:1;stroke:none;font-family:Bitstream Vera Sans"
       x="143.11494"
       y="470.37717"
       id="text4407"><tspan
         sodipodi:role="line"
         id="tspan4409"
         x="143.11494"
         y="470.37717"
         style="font-size:14px">12</tspan></text>
    <path
       style="fill:none;stroke:#000000;stroke-width:1px;stroke-linecap:butt;stroke-linejoin:miter;stroke-opacity:1;marker-end:url(#Arrow1Mend)"
       d="m 221.17357,439.78104 83.86331,0"
       id="path5123" />
    <text
       id="text5311"
       y="468.14291"
       x="259.78003"
       style="font-size:14px;font-style:normal;font-weight:normal;text-align:start;writing-mode:lr-tb;text-anchor:start;fill:#000000;fill-opacity:1;stroke:none;font-family:Bitstream Vera Sans"
       xml:space="preserve"><tspan
         y="468.14291"
         x="259.78003"
         id="tspan5313"
         sodipodi:role="line">4</tspan></text>
    <path
       style="fill:none;stroke:#000000;stroke-width:1px;stroke-linecap:butt;stroke-linejoin:miter;stroke-opacity:1;marker-end:url(#Arrow1Mend)"
       d="m 220.1156,556.45011 92.77585,-92.77585"
       id="path5315"
       sodipodi:nodetypes="cc" />
    <text
       id="text5503"
       y="500.65558"
       x="254.30719"
       style="font-size:14px;font-style:normal;font-weight:normal;text-align:start;writing-mode:lr-tb;text-anchor:start;fill:#000000;fill-opacity:1;stroke:none;font-family:Bitstream Vera Sans"
       xml:space="preserve"><tspan
         y="500.65558"
         x="254.30719"
         id="tspan5505"
         sodipodi:role="line">5</tspan></text>
    <path
       sodipodi:nodetypes="cc"
       id="path5507"
       d="m 305.7867,575.04634 -83.86313,4.1e-4"
       style="fill:none;stroke:#000000;stroke-width:1px;stroke-linecap:butt;stroke-linejoin:miter;stroke-opacity:1;marker-end:url(#Arrow1Mend)" />
    <text
       id="text5509"
       y="556.87726"
       x="254.27896"
       style="font-size:14px;font-style:normal;font-weight:normal;text-align:start;writing-mode:lr-tb;text-anchor:start;fill:#000000;fill-opacity:1;stroke:none;font-family:Bitstream Vera Sans"
       xml:space="preserve"><tspan
         y="556.87726"
         x="254.27896"
         id="tspan5511"
         sodipodi:role="line">10</tspan></text>
    <path
       style="fill:none;stroke:#000000;stroke-width:1px;stroke-linecap:butt;stroke-linejoin:miter;stroke-opacity:1;marker-end:url(#Arrow1Mend)"
       d="m 133.11265,489.40659 52.67423,-34.35987"
       id="path5557" />
    <path
       style="fill:none;stroke:#000000;stroke-width:1px;stroke-linecap:butt;stroke-linejoin:miter;stroke-opacity:1;marker-end:url(#Arrow1Mend)"
       d="m 196.22238,465.48222 -54.29881,34.29882"
       id="path5559"
       sodipodi:nodetypes="cc" />
  </g>
</svg>
