<?xml version="1.0" encoding="UTF-8" standalone="no"?>
<!-- Created with Inkscape (http://www.inkscape.org/) -->

<svg
   xmlns:dc="http://purl.org/dc/elements/1.1/"
   xmlns:cc="http://creativecommons.org/ns#"
   xmlns:rdf="http://www.w3.org/1999/02/22-rdf-syntax-ns#"
   xmlns:svg="http://www.w3.org/2000/svg"
   xmlns="http://www.w3.org/2000/svg"
   xmlns:sodipodi="http://sodipodi.sourceforge.net/DTD/sodipodi-0.dtd"
   xmlns:inkscape="http://www.inkscape.org/namespaces/inkscape"
   id="svg2837"
   version="1.1"
   inkscape:version="0.47 r22583"
   width="765"
   height="990"
   xml:space="preserve"
   sodipodi:docname="test.pdf"><metadata
     id="metadata2843"><rdf:RDF><cc:Work
         rdf:about=""><dc:format>image/svg+xml</dc:format><dc:type
           rdf:resource="http://purl.org/dc/dcmitype/StillImage" /><dc:title></dc:title></cc:Work></rdf:RDF></metadata><defs
     id="defs2841"><marker
       inkscape:stockid="Arrow1Lend"
       orient="auto"
       refY="0.0"
       refX="0.0"
       id="Arrow1Lend"
       style="overflow:visible;"><path
         id="path3699"
         d="M 0.0,0.0 L 5.0,-5.0 L -12.5,0.0 L 5.0,5.0 L 0.0,0.0 z "
         style="fill-rule:evenodd;stroke:#000000;stroke-width:1.0pt;marker-start:none;"
         transform="scale(0.8) rotate(180) translate(12.5,0)" /></marker><inkscape:perspective
       sodipodi:type="inkscape:persp3d"
       inkscape:vp_x="0 : 0.5 : 1"
       inkscape:vp_y="0 : 1000 : 0"
       inkscape:vp_z="1 : 0.5 : 1"
       inkscape:persp3d-origin="0.5 : 0.33333333 : 1"
       id="perspective2845" /></defs><sodipodi:namedview
     pagecolor="#ffffff"
     bordercolor="#666666"
     borderopacity="1"
     objecttolerance="10"
     gridtolerance="10"
     guidetolerance="10"
     inkscape:pageopacity="0"
     inkscape:pageshadow="2"
     inkscape:window-width="1324"
     inkscape:window-height="943"
     id="namedview2839"
     showgrid="false"
     showguides="true"
     inkscape:guide-bbox="true"
     inkscape:snap-bbox="false"
     inkscape:bbox-paths="true"
     inkscape:bbox-nodes="true"
     inkscape:snap-bbox-edge-midpoints="true"
     inkscape:snap-bbox-midpoints="true"
     inkscape:object-paths="true"
     inkscape:snap-intersection-paths="true"
     inkscape:object-nodes="true"
     inkscape:snap-smooth-nodes="true"
     inkscape:snap-midpoints="true"
     inkscape:snap-object-midpoints="true"
     inkscape:zoom="3.8141414"
     inkscape:cx="365.10667"
     inkscape:cy="754.88473"
     inkscape:window-x="0"
     inkscape:window-y="0"
     inkscape:window-maximized="0"
     inkscape:current-layer="g2847" /><g
     id="g2847"
     inkscape:groupmode="layer"
     inkscape:label="test"
     transform="matrix(1.25,0,0,-1.25,0,990)"><g
       id="g4141"><g
         transform="translate(145.46511,-93.948976)"
         id="g2875"><text
           transform="matrix(1,0,0,-1,86.944,686.996)"
           id="text2849"><tspan
             style="font-size:9.96259975px;font-variant:normal;font-weight:normal;writing-mode:lr-tb;fill:#000000;fill-opacity:1;fill-rule:nonzero;stroke:none;font-family:CMMI10;-inkscape-font-specification:CMMI10"
             x="0"
             y="0"
             id="tspan2851">S</tspan></text>
<text
           transform="matrix(1,0,0,-1,93.053,685.502)"
           id="text2853"><tspan
             style="font-size:6.97380018px;font-variant:normal;font-weight:normal;writing-mode:lr-tb;fill:#000000;fill-opacity:1;fill-rule:nonzero;stroke:none;font-family:CMMI7;-inkscape-font-specification:CMMI7"
             x="0"
             y="0"
             id="tspan2855">i</tspan></text>
</g><g
         transform="translate(209.20286,-93.948976)"
         id="g2869"><text
           transform="matrix(1,0,0,-1,99.69,686.996)"
           id="text2857"><tspan
             style="font-size:9.96259975px;font-variant:normal;font-weight:normal;writing-mode:lr-tb;fill:#000000;fill-opacity:1;fill-rule:nonzero;stroke:none;font-family:CMMI10;-inkscape-font-specification:CMMI10"
             x="0"
             y="0"
             id="tspan2859">S</tspan></text>
<text
           transform="matrix(1,0,0,-1,105.799,685.502)"
           id="text2861"><tspan
             style="font-size:6.97380018px;font-variant:normal;font-weight:normal;writing-mode:lr-tb;fill:#000000;fill-opacity:1;fill-rule:nonzero;stroke:none;font-family:CMMI7;-inkscape-font-specification:CMMI7"
             x="0"
             y="0"
             id="tspan2863">j</tspan></text>
</g><g
         transform="matrix(0.66996244,0,0,0.66996244,76.635667,193.90083)"
         id="g2893"><path
           transform="matrix(0.8,0,0,-0.8,0,792)"
           id="path2889"
           d="m 287.3517,213.41631 -31.36892,54.28482 84.32972,0 -31.05031,-54.28482"
           style="fill:none;stroke:#000000;stroke-width:1.49262106px;stroke-linecap:butt;stroke-linejoin:miter;stroke-opacity:1"
           sodipodi:nodetypes="cccc" /><path
           sodipodi:type="arc"
           style="fill:none;stroke:#000000;stroke-width:1.49262106;stroke-miterlimit:1;stroke-opacity:1;stroke-dasharray:none;stroke-dashoffset:0"
           id="path2891"
           sodipodi:cx="292.33316"
           sodipodi:cy="201.09375"
           sodipodi:rx="17.566208"
           sodipodi:ry="17.566208"
           d="m 309.89937,201.09375 c 0,9.70155 -7.86466,17.56621 -17.56621,17.56621 -9.70155,0 -17.56621,-7.86466 -17.56621,-17.56621 0,-9.70155 7.86466,-17.56621 17.56621,-17.56621 9.70155,0 17.56621,7.86466 17.56621,17.56621 z"
           transform="matrix(0.8,0,0,-0.8,4.6515837,793.2195)" /></g><g
         id="g2913"
         transform="matrix(0.66996244,0,0,0.66996244,153.43567,193.90083)"><path
           sodipodi:nodetypes="cccc"
           style="fill:none;stroke:#000000;stroke-width:1.49262106px;stroke-linecap:butt;stroke-linejoin:miter;stroke-opacity:1"
           d="m 287.3517,213.41631 -31.36892,54.28482 84.32972,0 -31.05031,-54.28482"
           id="path2915"
           transform="matrix(0.8,0,0,-0.8,0,792)" /><path
           transform="matrix(0.8,0,0,-0.8,4.6515837,793.2195)"
           d="m 309.89937,201.09375 c 0,9.70155 -7.86466,17.56621 -17.56621,17.56621 -9.70155,0 -17.56621,-7.86466 -17.56621,-17.56621 0,-9.70155 7.86466,-17.56621 17.56621,-17.56621 9.70155,0 17.56621,7.86466 17.56621,17.56621 z"
           sodipodi:ry="17.566208"
           sodipodi:rx="17.566208"
           sodipodi:cy="201.09375"
           sodipodi:cx="292.33316"
           id="path2917"
           style="fill:none;stroke:#000000;stroke-width:1.49262106;stroke-miterlimit:1;stroke-opacity:1;stroke-dasharray:none;stroke-dashoffset:0"
           sodipodi:type="arc" /></g><path
         sodipodi:nodetypes="cc"
         transform="matrix(0.8,0,0,-0.8,0,792)"
         id="path2919"
         d="m 380.6926,222.63218 c -20.41419,14.21872 -43.45995,19.841 -74.30059,0"
         style="fill:none;stroke:#000000;stroke-width:1px;stroke-linecap:butt;stroke-linejoin:miter;stroke-opacity:1;marker-end:url(#Arrow1Lend)" /></g></g></svg>