<?xml version="1.0" encoding="UTF-8" standalone="no"?>
<!-- Created with Inkscape (http://www.inkscape.org/) -->

<svg
   xmlns:dc="http://purl.org/dc/elements/1.1/"
   xmlns:cc="http://creativecommons.org/ns#"
   xmlns:rdf="http://www.w3.org/1999/02/22-rdf-syntax-ns#"
   xmlns:svg="http://www.w3.org/2000/svg"
   xmlns="http://www.w3.org/2000/svg"
   xmlns:sodipodi="http://sodipodi.sourceforge.net/DTD/sodipodi-0.dtd"
   xmlns:inkscape="http://www.inkscape.org/namespaces/inkscape"
   width="210mm"
   height="297mm"
   id="svg2"
   version="1.1"
   inkscape:version="0.47 r22583"
   sodipodi:docname="kap3ABWochentage.svg">
  <defs
     id="defs4">
    <inkscape:perspective
       sodipodi:type="inkscape:persp3d"
       inkscape:vp_x="0 : 526.18109 : 1"
       inkscape:vp_y="0 : 1000 : 0"
       inkscape:vp_z="744.09448 : 526.18109 : 1"
       inkscape:persp3d-origin="372.04724 : 350.78739 : 1"
       id="perspective10" />
    <clipPath
       id="clipPath2876"
       clipPathUnits="userSpaceOnUse">
      <path
         id="path2878"
         d="m 36,35 495,0 0,189 -495,0 0,-189 z" />
    </clipPath>
    <inkscape:perspective
       id="perspective2866"
       inkscape:persp3d-origin="0.5 : 0.33333333 : 1"
       inkscape:vp_z="1 : 0.5 : 1"
       inkscape:vp_y="0 : 1000 : 0"
       inkscape:vp_x="0 : 0.5 : 1"
       sodipodi:type="inkscape:persp3d" />
  </defs>
  <sodipodi:namedview
     id="base"
     pagecolor="#ffffff"
     bordercolor="#666666"
     borderopacity="1.0"
     inkscape:pageopacity="0.0"
     inkscape:pageshadow="2"
     inkscape:zoom="1.4"
     inkscape:cx="397.56568"
     inkscape:cy="550.35508"
     inkscape:document-units="px"
     inkscape:current-layer="layer1"
     showgrid="false"
     inkscape:object-paths="true"
     inkscape:object-nodes="true"
     inkscape:snap-intersection-paths="true"
     inkscape:snap-smooth-nodes="true"
     inkscape:snap-midpoints="true"
     inkscape:window-width="1474"
     inkscape:window-height="829"
     inkscape:window-x="0"
     inkscape:window-y="0"
     inkscape:window-maximized="0" />
  <metadata
     id="metadata7">
    <rdf:RDF>
      <cc:Work
         rdf:about="">
        <dc:format>image/svg+xml</dc:format>
        <dc:type
           rdf:resource="http://purl.org/dc/dcmitype/StillImage" />
        <dc:title />
      </cc:Work>
    </rdf:RDF>
  </metadata>
  <g
     inkscape:label="Ebene 1"
     inkscape:groupmode="layer"
     id="layer1">
    <g
       id="g3316">
      <path
         id="path2902"
         style="fill:none;stroke:#000000;stroke-width:1.25;stroke-linecap:butt;stroke-linejoin:miter;stroke-miterlimit:10;stroke-opacity:1;stroke-dasharray:none"
         d="m 383.66071,421.59004 c 0,13.54 0,30.67875 0,44.2725" />
      <g
         transform="translate(45,0)"
         id="g3247">
        <path
           d="m 597.41071,488.88004 c 0,12.42625 -15.1125,22.5 -33.75,22.5 -18.6375,0 -33.75,-10.07375 -33.75,-22.5 0,-12.42625 15.1125,-22.5 33.75,-22.5 18.6375,0 33.75,10.07375 33.75,22.5 z"
           style="fill:none;stroke:#000000;stroke-width:1.25;stroke-linecap:butt;stroke-linejoin:miter;stroke-miterlimit:10;stroke-opacity:1;stroke-dasharray:none"
           id="path2904" />
        <text
           id="text2906"
           x="553.66071"
           y="495.25699"
           style="font-size:15px">
          <tspan
             style="font-size:17.50030518px;font-variant:normal;font-weight:normal;writing-mode:lr-tb;fill:#000000;fill-opacity:1;fill-rule:nonzero;stroke:none;font-family:Times;-inkscape-font-specification:TimesRoman"
             x="553.66071"
             y="495.25699"
             sodipodi:role="line"
             id="tspan2908">Sa</tspan>
        </text>
      </g>
      <g
         id="g3212">
        <path
           d="m 147.41071,578.88004 c 0,12.42625 -15.1125,22.5 -33.75,22.5 -18.637499,0 -33.749999,-10.07375 -33.749999,-22.5 0,-12.42625 15.1125,-22.5 33.749999,-22.5 18.6375,0 33.75,10.07375 33.75,22.5 z"
           style="fill:none;stroke:#000000;stroke-width:1.25;stroke-linecap:butt;stroke-linejoin:miter;stroke-miterlimit:10;stroke-opacity:1;stroke-dasharray:none"
           id="path2912" />
        <text
           id="text2914"
           x="104.28571"
           y="585.25702"
           style="font-size:15px">
          <tspan
             style="font-size:17.50030518px;font-variant:normal;font-weight:normal;writing-mode:lr-tb;fill:#000000;fill-opacity:1;fill-rule:nonzero;stroke:none;font-family:Times;-inkscape-font-specification:TimesRoman"
             x="104.28571 116.46592"
             y="585.25702"
             sodipodi:role="line"
             id="tspan2916">Di</tspan>
        </text>
      </g>
      <g
         id="g3207">
        <path
           d="m 237.41071,578.88004 c 0,12.42625 -15.1125,22.5 -33.75,22.5 -18.6375,0 -33.75,-10.07375 -33.75,-22.5 0,-12.42625 15.1125,-22.5 33.75,-22.5 18.6375,0 33.75,10.07375 33.75,22.5 z"
           style="fill:none;stroke:#000000;stroke-width:1.25;stroke-linecap:butt;stroke-linejoin:miter;stroke-miterlimit:10;stroke-opacity:1;stroke-dasharray:none"
           id="path2920" />
        <text
           id="text2922"
           x="192.41071"
           y="585.25702"
           style="font-size:15px">
          <tspan
             style="font-size:17.50030518px;font-variant:normal;font-weight:normal;writing-mode:lr-tb;fill:#000000;fill-opacity:1;fill-rule:nonzero;stroke:none;font-family:Times;-inkscape-font-specification:TimesRoman"
             x="192.41071 204.59093"
             y="585.25702"
             sodipodi:role="line"
             id="tspan2924">Do</tspan>
        </text>
      </g>
      <g
         id="g3293">
        <path
           d="m 327.41071,578.88004 c 0,12.42625 -15.1125,22.5 -33.75,22.5 -18.6375,0 -33.75,-10.07375 -33.75,-22.5 0,-12.42625 15.1125,-22.5 33.75,-22.5 18.6375,0 33.75,10.07375 33.75,22.5 z"
           style="fill:none;stroke:#000000;stroke-width:1.25;stroke-linecap:butt;stroke-linejoin:miter;stroke-miterlimit:10;stroke-opacity:1;stroke-dasharray:none"
           id="path2928" />
        <text
           id="text2930"
           x="285.53571"
           y="585.25702"
           style="font-size:15px">
          <tspan
             style="font-size:17.50030518px;font-variant:normal;font-weight:normal;writing-mode:lr-tb;fill:#000000;fill-opacity:1;fill-rule:nonzero;stroke:none;font-family:Times;-inkscape-font-specification:TimesRoman"
             x="285.53571 295.84338"
             y="585.25702"
             sodipodi:role="line"
             id="tspan2932">Fr</tspan>
        </text>
      </g>
      <g
         id="g3288">
        <path
           d="m 417.41071,578.88004 c 0,12.42625 -15.1125,22.5 -33.75,22.5 -18.6375,0 -33.75,-10.07375 -33.75,-22.5 0,-12.42625 15.1125,-22.5 33.75,-22.5 18.6375,0 33.75,10.07375 33.75,22.5 z"
           style="fill:none;stroke:#000000;stroke-width:1.25;stroke-linecap:butt;stroke-linejoin:miter;stroke-miterlimit:10;stroke-opacity:1;stroke-dasharray:none"
           id="path2936" />
        <text
           id="text2938"
           x="372.41071"
           y="585.25702"
           style="font-size:15px">
          <tspan
             style="font-size:17.50030518px;font-variant:normal;font-weight:normal;writing-mode:lr-tb;fill:#000000;fill-opacity:1;fill-rule:nonzero;stroke:none;font-family:Times;-inkscape-font-specification:TimesRoman"
             x="372.41071 388.35349"
             y="585.25702"
             sodipodi:role="line"
             id="tspan2940">Mi</tspan>
        </text>
      </g>
      <path
         id="path2942"
         style="fill:none;stroke:#000000;stroke-width:1.25;stroke-linecap:butt;stroke-linejoin:miter;stroke-miterlimit:10;stroke-opacity:1;stroke-dasharray:none"
         d="m 383.66071,511.59004 c 0,13.54 0,30.67875 0,44.2725" />
      <g
         id="g3261">
        <path
           d="m 507.41071,578.88004 c 0,12.42625 -15.1125,22.5 -33.75,22.5 -18.6375,0 -33.75,-10.07375 -33.75,-22.5 0,-12.42625 15.1125,-22.5 33.75,-22.5 18.6375,0 33.75,10.07375 33.75,22.5 z"
           style="fill:none;stroke:#000000;stroke-width:1.25;stroke-linecap:butt;stroke-linejoin:miter;stroke-miterlimit:10;stroke-opacity:1;stroke-dasharray:none"
           id="path2944" />
        <text
           id="text2946"
           x="460.53571"
           y="585.25702"
           style="font-size:15px">
          <tspan
             style="font-size:17.50030518px;font-variant:normal;font-weight:normal;writing-mode:lr-tb;fill:#000000;fill-opacity:1;fill-rule:nonzero;stroke:none;font-family:Times;-inkscape-font-specification:TimesRoman"
             x="460.53571 476.47849"
             y="585.25702"
             sodipodi:role="line"
             id="tspan2948">Mo</tspan>
        </text>
      </g>
      <g
         id="g3237">
        <path
           d="m 597.41071,578.88004 c 0,12.42625 -15.1125,22.5 -33.75,22.5 -18.6375,0 -33.75,-10.07375 -33.75,-22.5 0,-12.42625 15.1125,-22.5 33.75,-22.5 18.6375,0 33.75,10.07375 33.75,22.5 z"
           style="fill:none;stroke:#000000;stroke-width:1.25;stroke-linecap:butt;stroke-linejoin:miter;stroke-miterlimit:10;stroke-opacity:1;stroke-dasharray:none"
           id="path2952" />
        <text
           id="text2954"
           x="554.91071"
           y="585.25702"
           style="font-size:15px">
          <tspan
             style="font-size:17.50030518px;font-variant:normal;font-weight:normal;writing-mode:lr-tb;fill:#000000;fill-opacity:1;fill-rule:nonzero;stroke:none;font-family:Times;-inkscape-font-specification:TimesRoman"
             x="554.91071 564.29089"
             y="585.25702"
             sodipodi:role="line"
             id="tspan2956">Sa</tspan>
        </text>
      </g>
      <g
         id="g3242">
        <path
           d="m 687.41071,578.88004 c 0,12.42625 -15.1125,22.5 -33.75,22.5 -18.6375,0 -33.75,-10.07375 -33.75,-22.5 0,-12.42625 15.1125,-22.5 33.75,-22.5 18.6375,0 33.75,10.07375 33.75,22.5 z"
           style="fill:none;stroke:#000000;stroke-width:1.25;stroke-linecap:butt;stroke-linejoin:miter;stroke-miterlimit:10;stroke-opacity:1;stroke-dasharray:none"
           id="path2960" />
        <text
           id="text2962"
           x="643.66071"
           y="585.25702"
           style="font-size:15px">
          <tspan
             style="font-size:17.50030518px;font-variant:normal;font-weight:normal;writing-mode:lr-tb;fill:#000000;fill-opacity:1;fill-rule:nonzero;stroke:none;font-family:Times;-inkscape-font-specification:TimesRoman"
             x="643.66071 653.04089"
             y="585.25702"
             sodipodi:role="line"
             id="tspan2964">So</tspan>
        </text>
      </g>
      <g
         id="g3281">
        <path
           d="m 474.65196,398.88004 c 0,12.42625 -40.7375,22.5 -90.99125,22.5 -50.25375,0 -90.99125,-10.07375 -90.99125,-22.5 0,-12.42625 40.7375,-22.5 90.99125,-22.5 50.25375,0 90.99125,10.07375 90.99125,22.5 z"
           style="fill:none;stroke:#000000;stroke-width:1.25;stroke-linecap:butt;stroke-linejoin:miter;stroke-miterlimit:10;stroke-opacity:1;stroke-dasharray:none"
           id="path2882" />
        <text
           style="font-size:15px"
           y="404.94479"
           x="341.00467"
           id="text3195">
          <tspan
             id="tspan3197"
             sodipodi:role="line"
             y="404.94479"
             x="341.00467 353.18488"
             style="font-size:17.50030518px;font-variant:normal;font-weight:normal;writing-mode:lr-tb;fill:#000000;fill-opacity:1;fill-rule:nonzero;stroke:none;font-family:Times;-inkscape-font-specification:TimesRoman">Do</tspan>
        </text>
        <text
           style="font-size:15px"
           y="404.94479"
           x="407.86563"
           id="text3199">
          <tspan
             id="tspan3201"
             sodipodi:role="line"
             y="404.94479"
             x="407.86563 423.80841"
             style="font-size:17.50030518px;font-variant:normal;font-weight:normal;writing-mode:lr-tb;fill:#000000;fill-opacity:1;fill-rule:nonzero;stroke:none;font-family:Times;-inkscape-font-specification:TimesRoman">Mo</tspan>
        </text>
      </g>
      <g
         transform="translate(-45,0)"
         id="g3217">
        <path
           d="m 237.41071,488.88004 c 0,12.42625 -15.1125,22.5 -33.75,22.5 -18.6375,0 -33.75,-10.07375 -33.75,-22.5 0,-12.42625 15.1125,-22.5 33.75,-22.5 18.6375,0 33.75,10.07375 33.75,22.5 z"
           style="fill:none;stroke:#000000;stroke-width:1.25;stroke-linecap:butt;stroke-linejoin:miter;stroke-miterlimit:10;stroke-opacity:1;stroke-dasharray:none"
           id="path2888" />
        <text
           style="font-size:15px"
           y="495.85852"
           x="194.69437"
           id="text3203">
          <tspan
             id="tspan3205"
             sodipodi:role="line"
             y="495.85852"
             x="194.69437 206.87457"
             style="font-size:17.50030518px;font-variant:normal;font-weight:normal;writing-mode:lr-tb;fill:#000000;fill-opacity:1;fill-rule:nonzero;stroke:none;font-family:Times;-inkscape-font-specification:TimesRoman">Di</tspan>
        </text>
      </g>
      <g
         id="g3274">
        <path
           d="m 423.65571,488.88004 c 0,12.42625 -17.905,22.5 -39.995,22.5 -22.09,0 -39.995,-10.07375 -39.995,-22.5 0,-12.42625 17.905,-22.5 39.995,-22.5 22.09,0 39.995,10.07375 39.995,22.5 z"
           style="fill:none;stroke:#000000;stroke-width:1.25;stroke-linecap:butt;stroke-linejoin:miter;stroke-miterlimit:10;stroke-opacity:1;stroke-dasharray:none"
           id="path2896" />
        <text
           style="font-size:15px"
           y="495.25894"
           x="355.23624"
           id="text3266">
          <tspan
             id="tspan3268"
             sodipodi:role="line"
             y="495.25894"
             x="355.23624 365.54391"
             style="font-size:17.50030518px;font-variant:normal;font-weight:normal;writing-mode:lr-tb;fill:#000000;fill-opacity:1;fill-rule:nonzero;stroke:none;font-family:Times;-inkscape-font-specification:TimesRoman">Fr</tspan>
        </text>
        <text
           style="font-size:15px"
           y="495.52811"
           x="390.08838"
           id="text3270">
          <tspan
             id="tspan3272"
             sodipodi:role="line"
             y="495.52811"
             x="390.08838 406.03116"
             style="font-size:17.50030518px;font-variant:normal;font-weight:normal;writing-mode:lr-tb;fill:#000000;fill-opacity:1;fill-rule:nonzero;stroke:none;font-family:Times;-inkscape-font-specification:TimesRoman">Mi</tspan>
        </text>
      </g>
      <path
         id="path3300"
         d="M 180.31223,471.01939 307.17575,411.07317"
         style="fill:none;stroke:#000000;stroke-width:1px;stroke-linecap:butt;stroke-linejoin:miter;stroke-opacity:1" />
      <path
         id="path3302"
         d="M 588.55805,470.80552 461.84357,410.39737"
         style="fill:none;stroke:#000000;stroke-width:1px;stroke-linecap:butt;stroke-linejoin:miter;stroke-opacity:1" />
      <path
         id="path3304"
         d="m 113.66071,556.38004 26.54048,-48.66113"
         style="fill:none;stroke:#000000;stroke-width:1px;stroke-linecap:butt;stroke-linejoin:miter;stroke-opacity:1" />
      <path
         id="path3306"
         d="M 187.75395,559.03114 174.84207,508.62983"
         style="fill:none;stroke:#000000;stroke-width:1px;stroke-linecap:butt;stroke-linejoin:miter;stroke-opacity:1" />
      <path
         id="path3308"
         d="m 310.11683,558.90266 37.07135,-60.776"
         style="fill:none;stroke:#000000;stroke-width:1px;stroke-linecap:butt;stroke-linejoin:miter;stroke-opacity:1" />
      <path
         id="path3310"
         d="M 461.28057,557.94224 419.33893,499.05873"
         style="fill:none;stroke:#000000;stroke-width:1px;stroke-linecap:butt;stroke-linejoin:miter;stroke-opacity:1" />
      <path
         id="path3312"
         d="m 563.66071,556.38004 26.61453,-48.62891"
         style="fill:none;stroke:#000000;stroke-width:1px;stroke-linecap:butt;stroke-linejoin:miter;stroke-opacity:1" />
      <path
         id="path3314"
         d="M 652.55854,556.88236 626.78782,507.86213"
         style="fill:none;stroke:#000000;stroke-width:1px;stroke-linecap:butt;stroke-linejoin:miter;stroke-opacity:1" />
    </g>
  </g>
</svg>
