<?xml version="1.0" encoding="UTF-8" standalone="no"?>
<!-- Created with Inkscape (http://www.inkscape.org/) -->

<svg
   xmlns:dc="http://purl.org/dc/elements/1.1/"
   xmlns:cc="http://creativecommons.org/ns#"
   xmlns:rdf="http://www.w3.org/1999/02/22-rdf-syntax-ns#"
   xmlns:svg="http://www.w3.org/2000/svg"
   xmlns="http://www.w3.org/2000/svg"
   xmlns:sodipodi="http://sodipodi.sourceforge.net/DTD/sodipodi-0.dtd"
   xmlns:inkscape="http://www.inkscape.org/namespaces/inkscape"
   id="svg2"
   version="1.1"
   inkscape:version="0.47 r22583"
   width="425"
   height="321.25"
   xml:space="preserve"
   sodipodi:docname="kap3Trie.pdf"><metadata
     id="metadata8"><rdf:RDF><cc:Work
         rdf:about=""><dc:format>image/svg+xml</dc:format><dc:type
           rdf:resource="http://purl.org/dc/dcmitype/StillImage" /><dc:title></dc:title></cc:Work></rdf:RDF></metadata><defs
     id="defs6"><inkscape:perspective
       sodipodi:type="inkscape:persp3d"
       inkscape:vp_x="0 : 0.5 : 1"
       inkscape:vp_y="0 : 1000 : 0"
       inkscape:vp_z="1 : 0.5 : 1"
       inkscape:persp3d-origin="0.5 : 0.33333333 : 1"
       id="perspective10" /><clipPath
       clipPathUnits="userSpaceOnUse"
       id="clipPath20"><path
         d="m 0,-1 341,0 0,258 L 0,257 0,-1 z"
         id="path22" /></clipPath></defs><sodipodi:namedview
     pagecolor="#ffffff"
     bordercolor="#666666"
     borderopacity="1"
     objecttolerance="10"
     gridtolerance="10"
     guidetolerance="10"
     inkscape:pageopacity="0"
     inkscape:pageshadow="2"
     inkscape:window-width="1680"
     inkscape:window-height="1002"
     id="namedview4"
     showgrid="false"
     inkscape:snap-object-midpoints="true"
     inkscape:snap-center="true"
     inkscape:snap-bbox="true"
     inkscape:bbox-paths="false"
     inkscape:bbox-nodes="false"
     inkscape:snap-bbox-edge-midpoints="false"
     inkscape:snap-bbox-midpoints="true"
     inkscape:object-paths="false"
     inkscape:snap-intersection-paths="true"
     inkscape:object-nodes="false"
     inkscape:snap-smooth-nodes="false"
     inkscape:snap-midpoints="false"
     inkscape:snap-nodes="true"
     inkscape:zoom="1.4692607"
     inkscape:cx="212.5"
     inkscape:cy="160.625"
     inkscape:window-x="0"
     inkscape:window-y="0"
     inkscape:window-maximized="0"
     inkscape:current-layer="g12" /><g
     id="g12"
     inkscape:groupmode="layer"
     inkscape:label="kap3Trie.dot"
     transform="matrix(1.25,0,0,-1.25,0,321.25)"><g
       id="g14" /><g
       id="g132" /><g
       id="g3833"><path
         id="path26"
         style="fill:none;stroke:#000000;stroke-width:1;stroke-linecap:butt;stroke-linejoin:miter;stroke-miterlimit:10;stroke-opacity:1;stroke-dasharray:none"
         d="m 184.758,246 c 0,-3.867 -3.137,-7 -7,-7 -3.867,0 -7,3.133 -7,7 0,3.867 3.133,7 7,7 3.863,0 7,-3.133 7,-7 z" /><path
         id="path28"
         style="fill:#000000;fill-opacity:1;fill-rule:nonzero;stroke:#000000;stroke-width:1;stroke-linecap:butt;stroke-linejoin:miter;stroke-miterlimit:10;stroke-opacity:1;stroke-dasharray:none"
         d="m 111.555,198 c 0,-2.398 -3.598,-2.398 -3.598,0 0,2.398 3.598,2.398 3.598,0 z" /><path
         id="path30"
         style="fill:none;stroke:#000000;stroke-width:1;stroke-linecap:butt;stroke-linejoin:miter;stroke-miterlimit:10;stroke-opacity:1;stroke-dasharray:none"
         d="M 171.957,241.906 C 157.312,231.57 119.414,204.816 111.301,199.09" /><text
         y="-216.10156"
         x="155.75781"
         id="text32"
         transform="scale(1,-1)"><tspan
           id="tspan34"
           y="-216.10156"
           x="155.75781"
           style="font-size:15.99975586px;font-variant:normal;font-weight:normal;writing-mode:lr-tb;fill:#000000;fill-opacity:1;fill-rule:nonzero;stroke:none;font-family:Times;-inkscape-font-specification:TimesRoman">d</tspan></text>
<path
         id="path36"
         style="fill:#000000;fill-opacity:1;fill-rule:nonzero;stroke:#000000;stroke-width:1;stroke-linecap:butt;stroke-linejoin:miter;stroke-miterlimit:10;stroke-opacity:1;stroke-dasharray:none"
         d="m 268.555,198 c 0,-2.398 -3.598,-2.398 -3.598,0 0,2.398 3.598,2.398 3.598,0 z" /><path
         id="path38"
         style="fill:none;stroke:#000000;stroke-width:1;stroke-linecap:butt;stroke-linejoin:miter;stroke-miterlimit:10;stroke-opacity:1;stroke-dasharray:none"
         d="m 184.156,242.547 c 18.336,-9.887 70.399,-37.965 80.785,-43.567" /><text
         y="-216.10156"
         x="237.75781"
         id="text40"
         transform="scale(1,-1)"><tspan
           id="tspan42"
           y="-216.10156"
           x="237.75781"
           style="font-size:15.99975586px;font-variant:normal;font-weight:normal;writing-mode:lr-tb;fill:#000000;fill-opacity:1;fill-rule:nonzero;stroke:none;font-family:Times;-inkscape-font-specification:TimesRoman">e</tspan></text>
<path
         id="path44"
         style="fill:#000000;fill-opacity:1;fill-rule:nonzero;stroke:#000000;stroke-width:1;stroke-linecap:butt;stroke-linejoin:miter;stroke-miterlimit:10;stroke-opacity:1;stroke-dasharray:none"
         d="m 17.555,150 c 0,-2.398 -3.598,-2.398 -3.598,0 0,2.398 3.598,2.398 3.598,0 z" /><path
         id="path46"
         style="fill:none;stroke:#000000;stroke-width:1;stroke-linecap:butt;stroke-linejoin:miter;stroke-miterlimit:10;stroke-opacity:1;stroke-dasharray:none"
         d="M 108.125,197.168 C 96.715,191.34 28.988,156.758 17.434,150.855" /><text
         y="-168.10156"
         x="79.757812"
         id="text48"
         transform="scale(1,-1)"><tspan
           id="tspan50"
           y="-168.10156"
           x="79.757812"
           style="font-size:15.99975586px;font-variant:normal;font-weight:normal;writing-mode:lr-tb;fill:#000000;fill-opacity:1;fill-rule:nonzero;stroke:none;font-family:Times;-inkscape-font-specification:TimesRoman">a</tspan></text>
<path
         id="path52"
         style="fill:#000000;fill-opacity:1;fill-rule:nonzero;stroke:#000000;stroke-width:1;stroke-linecap:butt;stroke-linejoin:miter;stroke-miterlimit:10;stroke-opacity:1;stroke-dasharray:none"
         d="m 102.555,150 c 0,-2.398 -3.598,-2.398 -3.598,0 0,2.398 3.598,2.398 3.598,0 z" /><path
         id="path54"
         style="fill:none;stroke:#000000;stroke-width:1;stroke-linecap:butt;stroke-linejoin:miter;stroke-miterlimit:10;stroke-opacity:1;stroke-dasharray:none"
         d="m 109.371,195.938 c -1.48,-7.895 -6.777,-36.149 -8.238,-43.938" /><text
         y="-168.10156"
         x="107.75781"
         id="text56"
         transform="scale(1,-1)"><tspan
           id="tspan58"
           y="-168.10156"
           x="107.75781"
           style="font-size:15.99975586px;font-variant:normal;font-weight:normal;writing-mode:lr-tb;fill:#000000;fill-opacity:1;fill-rule:nonzero;stroke:none;font-family:Times;-inkscape-font-specification:TimesRoman">e</tspan></text>
<path
         id="path60"
         style="fill:#000000;fill-opacity:1;fill-rule:nonzero;stroke:#000000;stroke-width:1;stroke-linecap:butt;stroke-linejoin:miter;stroke-miterlimit:10;stroke-opacity:1;stroke-dasharray:none"
         d="m 187.555,150 c 0,-2.398 -3.598,-2.398 -3.598,0 0,2.398 3.598,2.398 3.598,0 z" /><path
         id="path62"
         style="fill:none;stroke:#000000;stroke-width:1;stroke-linecap:butt;stroke-linejoin:miter;stroke-miterlimit:10;stroke-opacity:1;stroke-dasharray:none"
         d="m 111.344,196.996 c 9.89,-6.246 62.968,-39.769 72.832,-46" /><text
         y="-168.10156"
         x="164.50175"
         id="text64"
         transform="scale(1,-1)"><tspan
           id="tspan66"
           y="-168.10156"
           x="164.50175"
           style="font-size:15.99975586px;font-variant:normal;font-weight:normal;writing-mode:lr-tb;fill:#000000;fill-opacity:1;fill-rule:nonzero;stroke:none;font-family:Times;-inkscape-font-specification:TimesRoman">i</tspan></text>
<path
         id="path68"
         style="fill:#000000;fill-opacity:1;fill-rule:nonzero;stroke:#000000;stroke-width:1;stroke-linecap:butt;stroke-linejoin:miter;stroke-miterlimit:10;stroke-opacity:1;stroke-dasharray:none"
         d="m 285.555,150 c 0,-2.398 -3.598,-2.398 -3.598,0 0,2.398 3.598,2.398 3.598,0 z" /><path
         id="path70"
         style="fill:none;stroke:#000000;stroke-width:1;stroke-linecap:butt;stroke-linejoin:miter;stroke-miterlimit:10;stroke-opacity:1;stroke-dasharray:none"
         d="m 267.488,195.938 c 2.793,-7.895 12.801,-36.149 15.559,-43.938" /><text
         y="-168.10156"
         x="281.50174"
         id="text72"
         transform="scale(1,-1)"><tspan
           id="tspan74"
           y="-168.10156"
           x="281.50174"
           style="font-size:15.99975586px;font-variant:normal;font-weight:normal;writing-mode:lr-tb;fill:#000000;fill-opacity:1;fill-rule:nonzero;stroke:none;font-family:Times;-inkscape-font-specification:TimesRoman">i</tspan></text>
<path
         id="path76"
         style="fill:#000000;fill-opacity:1;fill-rule:nonzero;stroke:#000000;stroke-width:1;stroke-linecap:butt;stroke-linejoin:miter;stroke-miterlimit:10;stroke-opacity:1;stroke-dasharray:none"
         d="m 13.555,102 c 0,-2.398 -3.598,-2.398 -3.598,0 0,2.398 3.598,2.398 3.598,0 z" /><path
         id="path78"
         style="fill:none;stroke:#000000;stroke-width:1;stroke-linecap:butt;stroke-linejoin:miter;stroke-miterlimit:10;stroke-opacity:1;stroke-dasharray:none"
         d="M 15.586,147.938 C 14.926,140.043 12.57,111.789 11.922,104" /><text
         y="-120.10156"
         x="18.501755"
         id="text80"
         transform="scale(1,-1)"><tspan
           id="tspan82"
           y="-120.10156"
           x="18.501755"
           style="font-size:15.99975586px;font-variant:normal;font-weight:normal;writing-mode:lr-tb;fill:#000000;fill-opacity:1;fill-rule:nonzero;stroke:none;font-family:Times;-inkscape-font-specification:TimesRoman">s</tspan></text>
<path
         id="path84"
         style="fill:#000000;fill-opacity:1;fill-rule:nonzero;stroke:#000000;stroke-width:1;stroke-linecap:butt;stroke-linejoin:miter;stroke-miterlimit:10;stroke-opacity:1;stroke-dasharray:none"
         d="m 102.555,102 c 0,-2.398 -3.598,-2.398 -3.598,0 0,2.398 3.598,2.398 3.598,0 z" /><path
         id="path86"
         style="fill:none;stroke:#000000;stroke-width:1;stroke-linecap:butt;stroke-linejoin:miter;stroke-miterlimit:10;stroke-opacity:1;stroke-dasharray:none"
         d="m 100.758,147.938 c 0,-7.895 0,-36.149 0,-43.938" /><text
         y="-120.10156"
         x="104.50175"
         id="text88"
         transform="scale(1,-1)"><tspan
           id="tspan90"
           y="-120.10156"
           x="104.50175"
           style="font-size:15.99975586px;font-variant:normal;font-weight:normal;writing-mode:lr-tb;fill:#000000;fill-opacity:1;fill-rule:nonzero;stroke:none;font-family:Times;-inkscape-font-specification:TimesRoman">r</tspan></text>
<path
         id="path92"
         style="fill:#000000;fill-opacity:1;fill-rule:nonzero;stroke:#000000;stroke-width:1;stroke-linecap:butt;stroke-linejoin:miter;stroke-miterlimit:10;stroke-opacity:1;stroke-dasharray:none"
         d="m 191.555,102 c 0,-2.398 -3.598,-2.398 -3.598,0 0,2.398 3.598,2.398 3.598,0 z" /><path
         id="path94"
         style="fill:none;stroke:#000000;stroke-width:1;stroke-linecap:butt;stroke-linejoin:miter;stroke-miterlimit:10;stroke-opacity:1;stroke-dasharray:none"
         d="m 185.93,147.938 c 0.656,-7.895 3.011,-36.149 3.66,-43.938" /><text
         y="-120.10156"
         x="191.50175"
         id="text96"
         transform="scale(1,-1)"><tspan
           id="tspan98"
           y="-120.10156"
           x="191.50175"
           style="font-size:15.99975586px;font-variant:normal;font-weight:normal;writing-mode:lr-tb;fill:#000000;fill-opacity:1;fill-rule:nonzero;stroke:none;font-family:Times;-inkscape-font-specification:TimesRoman">e</tspan></text>
<path
         id="path100"
         style="fill:#000000;fill-opacity:1;fill-rule:nonzero;stroke:#000000;stroke-width:1;stroke-linecap:butt;stroke-linejoin:miter;stroke-miterlimit:10;stroke-opacity:1;stroke-dasharray:none"
         d="m 289.555,102 c 0,-2.398 -3.598,-2.398 -3.598,0 0,2.398 3.598,2.398 3.598,0 z" /><path
         id="path102"
         style="fill:none;stroke:#000000;stroke-width:1;stroke-linecap:butt;stroke-linejoin:miter;stroke-miterlimit:10;stroke-opacity:1;stroke-dasharray:none"
         d="m 283.93,147.938 c 0.656,-7.895 3.011,-36.149 3.66,-43.938" /><text
         y="-120.10156"
         x="289.50174"
         id="text104"
         transform="scale(1,-1)"><tspan
           id="tspan106"
           y="-120.10156"
           x="289.50174"
           style="font-size:15.99975586px;font-variant:normal;font-weight:normal;writing-mode:lr-tb;fill:#000000;fill-opacity:1;fill-rule:nonzero;stroke:none;font-family:Times;-inkscape-font-specification:TimesRoman">n</tspan></text>
<path
         id="path108"
         style="fill:#000000;fill-opacity:1;fill-rule:nonzero;stroke:#000000;stroke-width:1;stroke-linecap:butt;stroke-linejoin:miter;stroke-miterlimit:10;stroke-opacity:1;stroke-dasharray:none"
         d="m 289.555,54 c 0,-2.398 -3.598,-2.398 -3.598,0 0,2.398 3.598,2.398 3.598,0 z" /><path
         id="path110"
         style="fill:none;stroke:#000000;stroke-width:1;stroke-linecap:butt;stroke-linejoin:miter;stroke-miterlimit:10;stroke-opacity:1;stroke-dasharray:none"
         d="m 287.758,99.938 c 0,-7.895 0,-36.149 0,-43.938" /><text
         y="-72.101562"
         x="291.50174"
         id="text112"
         transform="scale(1,-1)"><tspan
           id="tspan114"
           y="-72.101562"
           x="291.50174"
           style="font-size:15.99975586px;font-variant:normal;font-weight:normal;writing-mode:lr-tb;fill:#000000;fill-opacity:1;fill-rule:nonzero;stroke:none;font-family:Times;-inkscape-font-specification:TimesRoman">e</tspan></text>
<path
         id="path116"
         style="fill:#000000;fill-opacity:1;fill-rule:nonzero;stroke:#000000;stroke-width:1;stroke-linecap:butt;stroke-linejoin:miter;stroke-miterlimit:10;stroke-opacity:1;stroke-dasharray:none"
         d="m 252.555,6 c 0,-2.398 -3.598,-2.398 -3.598,0 0,2.398 3.598,2.398 3.598,0 z" /><path
         id="path118"
         style="fill:none;stroke:#000000;stroke-width:1;stroke-linecap:butt;stroke-linejoin:miter;stroke-miterlimit:10;stroke-opacity:1;stroke-dasharray:none"
         d="M 286.523,52.402 C 280.906,45.117 257.734,15.055 252.031,7.652" /><text
         y="-24.101562"
         x="275.75781"
         id="text120"
         transform="scale(1,-1)"><tspan
           id="tspan122"
           y="-24.101562"
           x="275.75781"
           style="font-size:15.99975586px;font-variant:normal;font-weight:normal;writing-mode:lr-tb;fill:#000000;fill-opacity:1;fill-rule:nonzero;stroke:none;font-family:Times;-inkscape-font-specification:TimesRoman">r</tspan></text>
<path
         id="path124"
         style="fill:#000000;fill-opacity:1;fill-rule:nonzero;stroke:#000000;stroke-width:1;stroke-linecap:butt;stroke-linejoin:miter;stroke-miterlimit:10;stroke-opacity:1;stroke-dasharray:none"
         d="m 329.555,6 c 0,-2.398 -3.598,-2.398 -3.598,0 0,2.398 3.598,2.398 3.598,0 z" /><path
         id="path126"
         style="fill:none;stroke:#000000;stroke-width:1;stroke-linecap:butt;stroke-linejoin:miter;stroke-miterlimit:10;stroke-opacity:1;stroke-dasharray:none"
         d="m 289.086,52.402 c 6.074,-7.285 31.125,-37.347 37.293,-44.75" /><text
         y="-24.101562"
         x="318.50174"
         id="text128"
         transform="scale(1,-1)"><tspan
           id="tspan130"
           y="-24.101562"
           x="318.50174"
           style="font-size:15.99975586px;font-variant:normal;font-weight:normal;writing-mode:lr-tb;fill:#000000;fill-opacity:1;fill-rule:nonzero;stroke:none;font-family:Times;-inkscape-font-specification:TimesRoman">s</tspan></text>
<rect
         transform="scale(1,-1)"
         y="-107.07267"
         x="6.2493305"
         height="10.345339"
         width="10.345339"
         id="rect2938"
         style="fill:none;stroke:#000000;stroke-width:0.8;stroke-miterlimit:1;stroke-opacity:1;stroke-dasharray:none;stroke-dashoffset:0" /><rect
         style="fill:none;stroke:#000000;stroke-width:0.80000001;stroke-miterlimit:1;stroke-opacity:1;stroke-dasharray:none;stroke-dashoffset:0"
         id="rect3714"
         width="10.345339"
         height="9.2563562"
         x="95.159874"
         y="-107.07267"
         transform="scale(1,-1)" /><rect
         transform="scale(1,-1)"
         y="-107.07267"
         x="184.45648"
         height="9.2563562"
         width="10.345339"
         id="rect3716"
         style="fill:none;stroke:#000000;stroke-width:0.80000001;stroke-miterlimit:1;stroke-opacity:1;stroke-dasharray:none;stroke-dashoffset:0" /><rect
         style="fill:none;stroke:#000000;stroke-width:0.80000001;stroke-miterlimit:1;stroke-opacity:1;stroke-dasharray:none;stroke-dashoffset:0"
         id="rect3718"
         width="10.345339"
         height="9.2563562"
         x="282.58334"
         y="-58.628178"
         transform="scale(1,-1)" /><rect
         transform="scale(1,-1)"
         y="-10.628178"
         x="245.58333"
         height="9.2563562"
         width="10.345339"
         id="rect3720"
         style="fill:none;stroke:#000000;stroke-width:0.80000001;stroke-miterlimit:1;stroke-opacity:1;stroke-dasharray:none;stroke-dashoffset:0" /><rect
         style="fill:none;stroke:#000000;stroke-width:0.80000001;stroke-miterlimit:1;stroke-opacity:1;stroke-dasharray:none;stroke-dashoffset:0"
         id="rect3722"
         width="10.345339"
         height="9.2563562"
         x="322.35663"
         y="-10.628178"
         transform="scale(1,-1)" /></g></g></svg>