<?xml version="1.0" encoding="UTF-8" standalone="no"?>
<!-- Created with Inkscape (http://www.inkscape.org/) -->

<svg
   xmlns:dc="http://purl.org/dc/elements/1.1/"
   xmlns:cc="http://creativecommons.org/ns#"
   xmlns:rdf="http://www.w3.org/1999/02/22-rdf-syntax-ns#"
   xmlns:svg="http://www.w3.org/2000/svg"
   xmlns="http://www.w3.org/2000/svg"
   xmlns:sodipodi="http://sodipodi.sourceforge.net/DTD/sodipodi-0.dtd"
   xmlns:inkscape="http://www.inkscape.org/namespaces/inkscape"
   width="210mm"
   height="297mm"
   id="svg2"
   version="1.1"
   inkscape:version="0.47 r22583"
   sodipodi:docname="Neues Dokument 1">
  <defs
     id="defs4">
    <marker
       inkscape:stockid="Arrow1Mend"
       orient="auto"
       refY="0.0"
       refX="0.0"
       id="Arrow1Mend"
       style="overflow:visible;">
      <path
         id="path3620"
         d="M 0.0,0.0 L 5.0,-5.0 L -12.5,0.0 L 5.0,5.0 L 0.0,0.0 z "
         style="fill-rule:evenodd;stroke:#000000;stroke-width:1.0pt;marker-start:none;"
         transform="scale(0.4) rotate(180) translate(10,0)" />
    </marker>
    <inkscape:perspective
       sodipodi:type="inkscape:persp3d"
       inkscape:vp_x="0 : 526.18109 : 1"
       inkscape:vp_y="0 : 1000 : 0"
       inkscape:vp_z="744.09448 : 526.18109 : 1"
       inkscape:persp3d-origin="372.04724 : 350.78739 : 1"
       id="perspective10" />
  </defs>
  <sodipodi:namedview
     id="base"
     pagecolor="#ffffff"
     bordercolor="#666666"
     borderopacity="1.0"
     inkscape:pageopacity="0.0"
     inkscape:pageshadow="2"
     inkscape:zoom="1.9660156"
     inkscape:cx="341.78685"
     inkscape:cy="735.79893"
     inkscape:document-units="px"
     inkscape:current-layer="layer1"
     showgrid="false"
     inkscape:object-nodes="true"
     inkscape:object-paths="true"
     inkscape:snap-intersection-paths="true"
     inkscape:snap-smooth-nodes="true"
     inkscape:snap-midpoints="true"
     inkscape:window-width="1600"
     inkscape:window-height="947"
     inkscape:window-x="76"
     inkscape:window-y="28"
     inkscape:window-maximized="0" />
  <metadata
     id="metadata7">
    <rdf:RDF>
      <cc:Work
         rdf:about="">
        <dc:format>image/svg+xml</dc:format>
        <dc:type
           rdf:resource="http://purl.org/dc/dcmitype/StillImage" />
        <dc:title></dc:title>
      </cc:Work>
    </rdf:RDF>
  </metadata>
  <g
     inkscape:label="Ebene 1"
     inkscape:groupmode="layer"
     id="layer1">
    <g
       id="g4132">
      <path
         sodipodi:nodetypes="cccsccc"
         id="path2816"
         d="m 190.23247,312.79532 c 0,2.94961 -0.59779,5.75961 -1.67881,8.31544 -3.4508,8.18494 -11.08669,12.35383 -19.6842,13.04756 -11.79846,0 -21.363,-9.56454 -21.363,-21.363 0,-11.79846 9.56454,-21.36301 21.363,-21.36301 8.81834,0.1792 16.0097,5.22626 19.6842,13.04756 1.08102,2.55584 1.67881,5.36583 1.67881,8.31545 z"
         style="fill:#cccccc;fill-opacity:1;stroke:#000000;stroke-width:1;stroke-miterlimit:4;stroke-dashoffset:0;stroke-opacity:1" />
      <text
         id="text3590"
         y="318.65518"
         x="161.96223"
         style="font-size:22px;font-style:normal;font-weight:normal;text-align:start;writing-mode:lr-tb;text-anchor:start;fill:#000000;fill-opacity:1;stroke:none;font-family:Bitstream Vera Sans"
         xml:space="preserve"><tspan
           y="318.65518"
           x="161.96223"
           id="tspan3592"
           sodipodi:role="line">u</tspan></text>
      <path
         style="fill:#cccccc;fill-opacity:1;stroke:#000000;stroke-width:1;stroke-miterlimit:4;stroke-opacity:1;stroke-dashoffset:0"
         d="m 287.50644,312.79532 c 0,2.94961 0.59779,5.75961 1.67881,8.31544 3.4508,8.18494 11.08669,12.35383 19.6842,13.04756 11.79846,0 21.363,-9.56454 21.363,-21.363 0,-11.79846 -9.56454,-21.36301 -21.363,-21.36301 -8.81834,0.1792 -16.0097,5.22626 -19.6842,13.04756 -1.08102,2.55584 -1.67881,5.36583 -1.67881,8.31545 z"
         id="path3602"
         sodipodi:nodetypes="cccsccc" />
      <text
         xml:space="preserve"
         style="font-size:22px;font-style:normal;font-weight:normal;text-align:start;writing-mode:lr-tb;text-anchor:start;fill:#000000;fill-opacity:1;stroke:none;font-family:Bitstream Vera Sans"
         x="302.35968"
         y="318.81094"
         id="text3596"><tspan
           sodipodi:role="line"
           id="tspan3598"
           x="302.35968"
           y="318.81094">v</tspan></text>
      <path
         sodipodi:nodetypes="cc"
         id="path3604"
         d="m 190.23247,312.79532 97.27397,0"
         style="fill:none;stroke:#000000;stroke-width:1px;stroke-linecap:butt;stroke-linejoin:miter;stroke-opacity:1;marker-end:url(#Arrow1Mend)" />
      <text
         id="text4104"
         y="308.13223"
         x="221.71858"
         style="font-size:22px;font-style:normal;font-weight:normal;text-align:start;writing-mode:lr-tb;text-anchor:start;fill:#000000;fill-opacity:1;stroke:none;font-family:Bitstream Vera Sans"
         xml:space="preserve"><tspan
           y="308.13223"
           x="221.71858"
           id="tspan4106"
           sodipodi:role="line">a/b</tspan></text>
    </g>
    <g
       id="g4143">
      <path
         style="fill:#cccccc;fill-opacity:1;stroke:#000000;stroke-width:1;stroke-miterlimit:4;stroke-opacity:1;stroke-dashoffset:0"
         d="m 450.23247,312.79532 c 0,2.94961 -0.59779,5.75961 -1.67881,8.31544 -3.4508,8.18494 -11.08669,12.35383 -19.6842,13.04756 -11.79846,0 -21.363,-9.56454 -21.363,-21.363 0,-11.79846 9.56454,-21.36301 21.363,-21.36301 8.81834,0.1792 16.0097,5.22626 19.6842,13.04756 1.08102,2.55584 1.67881,5.36583 1.67881,8.31545 z"
         id="path4056"
         sodipodi:nodetypes="cccsccc" />
      <text
         xml:space="preserve"
         style="font-size:22px;font-style:normal;font-weight:normal;text-align:start;writing-mode:lr-tb;text-anchor:start;fill:#000000;fill-opacity:1;stroke:none;font-family:Bitstream Vera Sans"
         x="421.96222"
         y="318.65518"
         id="text4058"><tspan
           sodipodi:role="line"
           id="tspan4060"
           x="421.96222"
           y="318.65518">u</tspan></text>
      <path
         sodipodi:nodetypes="cccsccc"
         id="path4062"
         d="m 547.50644,312.79532 c 0,2.94961 0.59779,5.75961 1.67881,8.31544 3.4508,8.18494 11.08669,12.35383 19.6842,13.04756 11.79846,0 21.363,-9.56454 21.363,-21.363 0,-11.79846 -9.56454,-21.36301 -21.363,-21.36301 -8.81834,0.1792 -16.0097,5.22626 -19.6842,13.04756 -1.08102,2.55584 -1.67881,5.36583 -1.67881,8.31545 z"
         style="fill:#cccccc;fill-opacity:1;stroke:#000000;stroke-width:1;stroke-miterlimit:4;stroke-opacity:1;stroke-dashoffset:0" />
      <text
         id="text4064"
         y="318.81094"
         x="562.35968"
         style="font-size:22px;font-style:normal;font-weight:normal;text-align:start;writing-mode:lr-tb;text-anchor:start;fill:#000000;fill-opacity:1;stroke:none;font-family:Bitstream Vera Sans"
         xml:space="preserve"><tspan
           y="318.81094"
           x="562.35968"
           id="tspan4066"
           sodipodi:role="line">v</tspan></text>
      <path
         style="fill:none;stroke:#000000;stroke-width:1px;stroke-linecap:butt;stroke-linejoin:miter;stroke-opacity:1;marker-end:url(#Arrow1Mend)"
         d="m 448.55366,304.47987 100.63159,0"
         id="path4068"
         sodipodi:nodetypes="cc" />
      <path
         style="fill:none;stroke:#000000;stroke-width:1px;stroke-linecap:butt;stroke-linejoin:miter;stroke-opacity:1;marker-end:url(#Arrow1Mend)"
         d="m 549.18525,321.11076 -100.63159,0"
         id="path4070"
         sodipodi:nodetypes="cc" />
      <text
         id="text4108"
         y="300.68152"
         x="481.54669"
         style="font-size:22px;font-style:normal;font-weight:normal;text-align:start;writing-mode:lr-tb;text-anchor:start;fill:#000000;fill-opacity:1;stroke:none;font-family:Bitstream Vera Sans"
         xml:space="preserve"><tspan
           y="300.68152"
           x="481.54669"
           id="tspan4110"
           sodipodi:role="line">b-a</tspan></text>
      <text
         id="text4112"
         y="339.11563"
         x="492.0921"
         style="font-size:22px;font-style:normal;font-weight:normal;text-align:start;writing-mode:lr-tb;text-anchor:start;fill:#000000;fill-opacity:1;stroke:none;font-family:Bitstream Vera Sans"
         xml:space="preserve"><tspan
           y="339.11563"
           x="492.0921"
           id="tspan4114"
           sodipodi:role="line">a</tspan></text>
    </g>
    <g
       id="g4171">
      <path
         style="fill:#cccccc;fill-opacity:1;stroke:#000000;stroke-width:1;stroke-miterlimit:4;stroke-opacity:1;stroke-dashoffset:0"
         d="m 190.23247,412.79532 c 0,2.94961 -0.59779,5.75961 -1.67881,8.31544 -3.4508,8.18494 -11.08669,12.35383 -19.6842,13.04756 -11.79846,0 -21.363,-9.56454 -21.363,-21.363 0,-11.79846 9.56454,-21.36301 21.363,-21.36301 8.81834,0.1792 16.0097,5.22626 19.6842,13.04756 1.08102,2.55584 1.67881,5.36583 1.67881,8.31545 z"
         id="path4072"
         sodipodi:nodetypes="cccsccc" />
      <text
         xml:space="preserve"
         style="font-size:22px;font-style:normal;font-weight:normal;text-align:start;writing-mode:lr-tb;text-anchor:start;fill:#000000;fill-opacity:1;stroke:none;font-family:Bitstream Vera Sans"
         x="161.96223"
         y="418.65518"
         id="text4074"><tspan
           sodipodi:role="line"
           id="tspan4076"
           x="161.96223"
           y="418.65518">u</tspan></text>
      <path
         sodipodi:nodetypes="cccsccc"
         id="path4078"
         d="m 287.50644,412.79532 c 0,2.94961 0.59779,5.75961 1.67881,8.31544 3.4508,8.18494 11.08669,12.35383 19.6842,13.04756 11.79846,0 21.363,-9.56454 21.363,-21.363 0,-11.79846 -9.56454,-21.36301 -21.363,-21.36301 -8.81834,0.1792 -16.0097,5.22626 -19.6842,13.04756 -1.08102,2.55584 -1.67881,5.36583 -1.67881,8.31545 z"
         style="fill:#cccccc;fill-opacity:1;stroke:#000000;stroke-width:1;stroke-miterlimit:4;stroke-opacity:1;stroke-dashoffset:0" />
      <text
         id="text4080"
         y="418.81094"
         x="302.35968"
         style="font-size:22px;font-style:normal;font-weight:normal;text-align:start;writing-mode:lr-tb;text-anchor:start;fill:#000000;fill-opacity:1;stroke:none;font-family:Bitstream Vera Sans"
         xml:space="preserve"><tspan
           y="418.81094"
           x="302.35968"
           id="tspan4082"
           sodipodi:role="line">v</tspan></text>
      <path
         style="fill:none;stroke:#000000;stroke-width:1px;stroke-linecap:butt;stroke-linejoin:miter;stroke-opacity:1;marker-end:url(#Arrow1Mend)"
         d="m 188.55366,404.47987 100.63159,0"
         id="path4084"
         sodipodi:nodetypes="cc" />
      <path
         style="fill:none;stroke:#000000;stroke-width:1px;stroke-linecap:butt;stroke-linejoin:miter;stroke-opacity:1;marker-end:url(#Arrow1Mend)"
         d="m 289.18525,421.11076 -100.63159,0"
         id="path4086"
         sodipodi:nodetypes="cc" />
      <text
         id="text4116"
         y="399.81677"
         x="221.71858"
         style="font-size:22px;font-style:normal;font-weight:normal;text-align:start;writing-mode:lr-tb;text-anchor:start;fill:#000000;fill-opacity:1;stroke:none;font-family:Bitstream Vera Sans"
         xml:space="preserve"><tspan
           y="399.81677"
           x="221.71858"
           id="tspan4118"
           sodipodi:role="line">a/b</tspan></text>
      <text
         id="text4120"
         y="439.11563"
         x="232.5218"
         style="font-size:22px;font-style:normal;font-weight:normal;text-align:start;writing-mode:lr-tb;text-anchor:start;fill:#000000;fill-opacity:1;stroke:none;font-family:Bitstream Vera Sans"
         xml:space="preserve"><tspan
           y="439.11563"
           x="232.5218"
           id="tspan4122"
           sodipodi:role="line">c</tspan></text>
    </g>
    <g
       id="g4157">
      <path
         sodipodi:nodetypes="cccsccc"
         id="path4088"
         d="m 450.23247,412.79532 c 0,2.94961 -0.59779,5.75961 -1.67881,8.31544 -3.4508,8.18494 -11.08669,12.35383 -19.6842,13.04756 -11.79846,0 -21.363,-9.56454 -21.363,-21.363 0,-11.79846 9.56454,-21.36301 21.363,-21.36301 8.81834,0.1792 16.0097,5.22626 19.6842,13.04756 1.08102,2.55584 1.67881,5.36583 1.67881,8.31545 z"
         style="fill:#cccccc;fill-opacity:1;stroke:#000000;stroke-width:1;stroke-miterlimit:4;stroke-opacity:1;stroke-dashoffset:0" />
      <text
         id="text4090"
         y="418.65518"
         x="421.96222"
         style="font-size:22px;font-style:normal;font-weight:normal;text-align:start;writing-mode:lr-tb;text-anchor:start;fill:#000000;fill-opacity:1;stroke:none;font-family:Bitstream Vera Sans"
         xml:space="preserve"><tspan
           y="418.65518"
           x="421.96222"
           id="tspan4092"
           sodipodi:role="line">u</tspan></text>
      <path
         style="fill:#cccccc;fill-opacity:1;stroke:#000000;stroke-width:1;stroke-miterlimit:4;stroke-opacity:1;stroke-dashoffset:0"
         d="m 547.50644,412.79532 c 0,2.94961 0.59779,5.75961 1.67881,8.31544 3.4508,8.18494 11.08669,12.35383 19.6842,13.04756 11.79846,0 21.363,-9.56454 21.363,-21.363 0,-11.79846 -9.56454,-21.36301 -21.363,-21.36301 -8.81834,0.1792 -16.0097,5.22626 -19.6842,13.04756 -1.08102,2.55584 -1.67881,5.36583 -1.67881,8.31545 z"
         id="path4094"
         sodipodi:nodetypes="cccsccc" />
      <text
         xml:space="preserve"
         style="font-size:22px;font-style:normal;font-weight:normal;text-align:start;writing-mode:lr-tb;text-anchor:start;fill:#000000;fill-opacity:1;stroke:none;font-family:Bitstream Vera Sans"
         x="562.35968"
         y="418.81094"
         id="text4096"><tspan
           sodipodi:role="line"
           id="tspan4098"
           x="562.35968"
           y="418.81094">v</tspan></text>
      <path
         sodipodi:nodetypes="cc"
         id="path4100"
         d="m 448.55366,404.47987 100.63159,0"
         style="fill:none;stroke:#000000;stroke-width:1px;stroke-linecap:butt;stroke-linejoin:miter;stroke-opacity:1;marker-end:url(#Arrow1Mend)" />
      <path
         sodipodi:nodetypes="cc"
         id="path4102"
         d="m 549.18525,421.11076 -100.63159,0"
         style="fill:none;stroke:#000000;stroke-width:1px;stroke-linecap:butt;stroke-linejoin:miter;stroke-opacity:1;marker-end:url(#Arrow1Mend)" />
      <text
         id="text4124"
         y="400.68152"
         x="481.54669"
         style="font-size:22px;font-style:normal;font-weight:normal;text-align:start;writing-mode:lr-tb;text-anchor:start;fill:#000000;fill-opacity:1;stroke:none;font-family:Bitstream Vera Sans"
         xml:space="preserve"><tspan
           y="400.68152"
           x="481.54669"
           id="tspan4126"
           sodipodi:role="line">b-a</tspan></text>
      <text
         id="text4128"
         y="439.85147"
         x="476.89191"
         style="font-size:22px;font-style:normal;font-weight:normal;text-align:start;writing-mode:lr-tb;text-anchor:start;fill:#000000;fill-opacity:1;stroke:none;font-family:Bitstream Vera Sans"
         xml:space="preserve"><tspan
           y="439.85147"
           x="476.89191"
           id="tspan4130"
           sodipodi:role="line">c+a</tspan></text>
    </g>
  </g>
</svg>
