<?xml version="1.0" encoding="UTF-8" standalone="no"?>
<!-- Created with Inkscape (http://www.inkscape.org/) -->

<svg
   xmlns:dc="http://purl.org/dc/elements/1.1/"
   xmlns:cc="http://creativecommons.org/ns#"
   xmlns:rdf="http://www.w3.org/1999/02/22-rdf-syntax-ns#"
   xmlns:svg="http://www.w3.org/2000/svg"
   xmlns="http://www.w3.org/2000/svg"
   xmlns:sodipodi="http://sodipodi.sourceforge.net/DTD/sodipodi-0.dtd"
   xmlns:inkscape="http://www.inkscape.org/namespaces/inkscape"
   width="210mm"
   height="297mm"
   id="svg2"
   version="1.1"
   inkscape:version="0.47 r22583"
   sodipodi:docname="Neues Dokument 1">
  <defs
     id="defs4">
    <inkscape:perspective
       sodipodi:type="inkscape:persp3d"
       inkscape:vp_x="0 : 526.18109 : 1"
       inkscape:vp_y="0 : 1000 : 0"
       inkscape:vp_z="744.09448 : 526.18109 : 1"
       inkscape:persp3d-origin="372.04724 : 350.78739 : 1"
       id="perspective10" />
  </defs>
  <sodipodi:namedview
     id="base"
     pagecolor="#ffffff"
     bordercolor="#666666"
     borderopacity="1.0"
     inkscape:pageopacity="0.0"
     inkscape:pageshadow="2"
     inkscape:zoom="1.9660156"
     inkscape:cx="283.62209"
     inkscape:cy="642.07431"
     inkscape:document-units="px"
     inkscape:current-layer="layer1"
     showgrid="false"
     inkscape:object-paths="true"
     inkscape:snap-intersection-paths="true"
     inkscape:object-nodes="true"
     inkscape:snap-smooth-nodes="true"
     inkscape:snap-midpoints="true"
     inkscape:window-width="1622"
     inkscape:window-height="947"
     inkscape:window-x="20"
     inkscape:window-y="10"
     inkscape:window-maximized="0" />
  <metadata
     id="metadata7">
    <rdf:RDF>
      <cc:Work
         rdf:about="">
        <dc:format>image/svg+xml</dc:format>
        <dc:type
           rdf:resource="http://purl.org/dc/dcmitype/StillImage" />
        <dc:title></dc:title>
      </cc:Work>
    </rdf:RDF>
  </metadata>
  <g
     inkscape:label="Ebene 1"
     inkscape:groupmode="layer"
     id="layer1">
    <path
       transform="matrix(0.65909092,0,0,0.65909092,71.326698,131.2577)"
       style="fill:#cccccc;fill-opacity:1;fill-rule:nonzero;stroke:#000000;stroke-width:1.51724136;stroke-miterlimit:4;stroke-dashoffset:0;stroke-opacity:1"
       d="m 172.93861,385.02261 c 0,12.3603 -10.02,22.38029 -22.38029,22.38029 -12.36029,0 -22.38029,-10.01999 -22.38029,-22.38029 0,-12.36029 10.02,-22.38029 22.38029,-22.38029 12.36029,0 22.38029,10.02 22.38029,22.38029 z"
       id="path2816" />
    <text
       xml:space="preserve"
       style="font-size:22px;font-style:normal;font-weight:normal;text-align:start;writing-mode:lr-tb;text-anchor:start;fill:#000000;fill-opacity:1;stroke:none;font-family:Bitstream Vera Sans"
       x="164.15598"
       y="391.0275"
       id="text3590"><tspan
         sodipodi:role="line"
         id="tspan3592"
         x="164.15598"
         y="391.0275">a</tspan></text>
    <path
       style="fill:#cccccc;fill-opacity:1;fill-rule:nonzero;stroke:#000000;stroke-width:1;stroke-miterlimit:4;stroke-opacity:1;stroke-dashoffset:0"
       d="m 245.30897,385.02261 c 0,8.14656 -6.60409,14.75064 -14.75065,14.75064 -8.14655,0 -14.75064,-6.60408 -14.75064,-14.75064 0,-8.14656 6.60409,-14.75065 14.75064,-14.75065 8.14656,0 14.75065,6.60409 14.75065,14.75065 z"
       id="path3601" />
    <text
       id="text3603"
       y="393.38004"
       x="226.22385"
       style="font-size:22px;font-style:normal;font-weight:normal;text-align:start;writing-mode:lr-tb;text-anchor:start;fill:#000000;fill-opacity:1;stroke:none;font-family:Bitstream Vera Sans"
       xml:space="preserve"><tspan
         y="393.38004"
         x="226.22385"
         id="tspan3605"
         sodipodi:role="line">f</tspan></text>
    <path
       transform="matrix(0.65909092,0,0,0.65909092,131.3267,71.2577)"
       style="fill:#cccccc;fill-opacity:1;fill-rule:nonzero;stroke:#000000;stroke-width:1.51724136;stroke-miterlimit:4;stroke-dashoffset:0;stroke-opacity:1"
       d="m 172.93861,385.02261 c 0,6.18015 -2.505,11.77522 -6.55504,15.82526 -4.05003,4.05003 -9.6451,6.55503 -15.82525,6.55503 -12.36029,0 -22.38029,-10.01999 -22.38029,-22.38029 0,-12.36029 10.02,-22.38029 22.38029,-22.38029 12.36029,0 22.38029,10.02 22.38029,22.38029 z"
       id="path3609"
       sodipodi:nodetypes="cssssc" />
    <text
       xml:space="preserve"
       style="font-size:22px;font-style:normal;font-weight:normal;text-align:start;writing-mode:lr-tb;text-anchor:start;fill:#000000;fill-opacity:1;stroke:none;font-family:Bitstream Vera Sans"
       x="223.17844"
       y="333.22427"
       id="text3611"><tspan
         sodipodi:role="line"
         id="tspan3613"
         x="223.17844"
         y="333.22427">b</tspan></text>
    <path
       transform="matrix(0.65909092,0,0,0.65909092,131.3267,191.2577)"
       style="fill:#cccccc;fill-opacity:1;fill-rule:nonzero;stroke:#000000;stroke-width:1.51724136;stroke-miterlimit:4;stroke-dashoffset:0;stroke-opacity:1"
       d="m 172.93861,385.02261 c 0,12.3603 -10.02,22.38029 -22.38029,22.38029 -12.36029,0 -22.38029,-10.01999 -22.38029,-22.38029 0,-12.36029 10.02,-22.38029 22.38029,-22.38029 6.18015,0 11.77522,2.505 15.82525,6.55504 4.05004,4.05003 6.55504,9.64511 6.55504,15.82525 z"
       id="path3617"
       sodipodi:nodetypes="cssssc" />
    <text
       xml:space="preserve"
       style="font-size:22px;font-style:normal;font-weight:normal;text-align:start;writing-mode:lr-tb;text-anchor:start;fill:#000000;fill-opacity:1;stroke:none;font-family:Bitstream Vera Sans"
       x="223.76926"
       y="451.0275"
       id="text3619"><tspan
         sodipodi:role="line"
         id="tspan3621"
         x="223.76926"
         y="451.0275">e</tspan></text>
    <path
       transform="matrix(0.65909092,0,0,0.65909092,231.3267,71.2577)"
       style="fill:#cccccc;fill-opacity:1;fill-rule:nonzero;stroke:#000000;stroke-width:1.51724136;stroke-miterlimit:4;stroke-dashoffset:0;stroke-opacity:1"
       d="m 172.93861,385.02261 c 0,12.3603 -10.02,22.38029 -22.38029,22.38029 -6.18014,0 -11.77522,-2.505 -15.82525,-6.55503 -4.05004,-4.05004 -6.55504,-9.64511 -6.55504,-15.82526 0,-12.36029 10.02,-22.38029 22.38029,-22.38029 12.36029,0 22.38029,10.02 22.38029,22.38029 z"
       id="path3625"
       sodipodi:nodetypes="cssssc" />
    <text
       id="text3627"
       y="331.0275"
       x="324.58566"
       style="font-size:22px;font-style:normal;font-weight:normal;text-align:start;writing-mode:lr-tb;text-anchor:start;fill:#000000;fill-opacity:1;stroke:none;font-family:Bitstream Vera Sans"
       xml:space="preserve"><tspan
         y="331.0275"
         x="324.58566"
         id="tspan3629"
         sodipodi:role="line">c</tspan></text>
    <path
       transform="matrix(0.65909092,0,0,0.65909092,231.3267,191.2577)"
       style="fill:#cccccc;fill-opacity:1;fill-rule:nonzero;stroke:#000000;stroke-width:1.51724136;stroke-miterlimit:4;stroke-dashoffset:0;stroke-opacity:1"
       d="m 172.93861,385.02261 c 0,12.3603 -10.02,22.38029 -22.38029,22.38029 -12.36029,0 -22.38029,-10.01999 -22.38029,-22.38029 0,-6.18014 2.505,-11.77522 6.55504,-15.82525 4.05003,-4.05004 9.64511,-6.55504 15.82525,-6.55504 12.36029,0 22.38029,10.02 22.38029,22.38029 z"
       id="path3633"
       sodipodi:nodetypes="cssssc" />
    <text
       id="text3635"
       y="453.22427"
       x="323.96799"
       style="font-size:22px;font-style:normal;font-weight:normal;text-align:start;writing-mode:lr-tb;text-anchor:start;fill:#000000;fill-opacity:1;stroke:none;font-family:Bitstream Vera Sans"
       xml:space="preserve"><tspan
         y="453.22427"
         x="323.96799"
         id="tspan3637"
         sodipodi:role="line">d</tspan></text>
    <path
       style="fill:none;stroke:#000000;stroke-width:1px;stroke-linecap:butt;stroke-linejoin:miter;stroke-opacity:1"
       d="m 185.30897,385.02261 30.49871,0"
       id="path3663"
       sodipodi:nodetypes="cc" />
    <path
       style="fill:none;stroke:#000000;stroke-width:1px;stroke-linecap:butt;stroke-linejoin:miter;stroke-opacity:1"
       d="m 246.18319,325.00275 69.62449,0.0199"
       id="path3665" />
    <path
       style="fill:none;stroke:#000000;stroke-width:1px;stroke-linecap:butt;stroke-linejoin:miter;stroke-opacity:1"
       d="m 330.55832,339.77325 0,90.49871"
       id="path3667" />
    <path
       style="fill:none;stroke:#000000;stroke-width:1px;stroke-linecap:butt;stroke-linejoin:miter;stroke-opacity:1"
       d="m 315.35863,444.53385 -70.04966,0.48876"
       id="path3669" />
    <path
       style="fill:none;stroke:#000000;stroke-width:1px;stroke-linecap:butt;stroke-linejoin:miter;stroke-opacity:1"
       d="m 240.9886,335.45289 79.13944,99.13944 0,0"
       id="path3673"
       sodipodi:nodetypes="ccc" />
    <path
       style="fill:none;stroke:#000000;stroke-width:1px;stroke-linecap:butt;stroke-linejoin:miter;stroke-opacity:1"
       d="m 245.30897,385.02261 74.81907,-49.56972"
       id="path3675"
       sodipodi:nodetypes="cc" />
    <path
       style="fill:none;stroke:#000000;stroke-width:1px;stroke-linecap:butt;stroke-linejoin:miter;stroke-opacity:1"
       d="m 230.55832,339.77325 0,30.49871"
       id="path3679"
       sodipodi:nodetypes="cc" />
    <path
       style="fill:none;stroke:#000000;stroke-width:1px;stroke-linecap:butt;stroke-linejoin:miter;stroke-opacity:1"
       d="m 230.55832,399.77325 0,30.49871"
       id="path3681"
       sodipodi:nodetypes="cc" />
  </g>
</svg>
