<?xml version="1.0" encoding="UTF-8" standalone="no"?>
<!-- Created with Inkscape (http://www.inkscape.org/) -->

<svg
   xmlns:dc="http://purl.org/dc/elements/1.1/"
   xmlns:cc="http://creativecommons.org/ns#"
   xmlns:rdf="http://www.w3.org/1999/02/22-rdf-syntax-ns#"
   xmlns:svg="http://www.w3.org/2000/svg"
   xmlns="http://www.w3.org/2000/svg"
   xmlns:sodipodi="http://sodipodi.sourceforge.net/DTD/sodipodi-0.dtd"
   xmlns:inkscape="http://www.inkscape.org/namespaces/inkscape"
   width="210mm"
   height="297mm"
   id="svg2"
   version="1.1"
   inkscape:version="0.47 r22583"
   sodipodi:docname="kap6BspUK.svg">
  <defs
     id="defs4">
    <inkscape:perspective
       sodipodi:type="inkscape:persp3d"
       inkscape:vp_x="0 : 526.18109 : 1"
       inkscape:vp_y="0 : 1000 : 0"
       inkscape:vp_z="744.09448 : 526.18109 : 1"
       inkscape:persp3d-origin="372.04724 : 350.78739 : 1"
       id="perspective10" />
  </defs>
  <sodipodi:namedview
     id="base"
     pagecolor="#ffffff"
     bordercolor="#666666"
     borderopacity="1.0"
     inkscape:pageopacity="0.0"
     inkscape:pageshadow="2"
     inkscape:zoom="1.8429687"
     inkscape:cx="450.46851"
     inkscape:cy="595.96439"
     inkscape:document-units="px"
     inkscape:current-layer="layer1"
     showgrid="false"
     inkscape:object-nodes="false"
     inkscape:snap-object-midpoints="true"
     inkscape:window-width="1343"
     inkscape:window-height="902"
     inkscape:window-x="208"
     inkscape:window-y="22"
     inkscape:window-maximized="0" />
  <metadata
     id="metadata7">
    <rdf:RDF>
      <cc:Work
         rdf:about="">
        <dc:format>image/svg+xml</dc:format>
        <dc:type
           rdf:resource="http://purl.org/dc/dcmitype/StillImage" />
        <dc:title />
      </cc:Work>
    </rdf:RDF>
  </metadata>
  <g
     inkscape:label="Ebene 1"
     inkscape:groupmode="layer"
     id="layer1">
    <path
       style="fill:none;stroke:#000000;stroke-width:1px;stroke-linecap:butt;stroke-linejoin:miter;stroke-opacity:1"
       d="m 281.61975,372.48456 60,-60 0,60 -60,0 z"
       id="path3618" />
    <path
       style="fill:none;stroke:#000000;stroke-width:1px;stroke-linecap:butt;stroke-linejoin:miter;stroke-opacity:1"
       d="m 281.61975,372.48456 0,60 c -53.43756,84.0468 9.08287,132.78111 60,120"
       id="path3620"
       sodipodi:nodetypes="ccc" />
    <path
       style="fill:none;stroke:#000000;stroke-width:1px;stroke-linecap:butt;stroke-linejoin:miter;stroke-opacity:1"
       d="m 281.61975,432.48456 0,60"
       id="path3622" />
    <path
       style="fill:none;stroke:#000000;stroke-width:1px;stroke-linecap:butt;stroke-linejoin:miter;stroke-opacity:1"
       d="m 341.61975,552.48456 0,-60 -60,0"
       id="path3626" />
    <path
       style="fill:none;stroke:#000000;stroke-width:1px;stroke-linecap:butt;stroke-linejoin:miter;stroke-opacity:1"
       d="m 280.85238,433.1057 60.76737,-0.62114 0,60"
       id="path3628" />
    <path
       style="fill:none;stroke:#000000;stroke-width:1px;stroke-linecap:butt;stroke-linejoin:miter;stroke-opacity:1"
       d="m 281.61974,493.72684 60.00001,58.75772"
       id="path3630" />
    <path
       style="fill:none;stroke:#000000;stroke-width:1px;stroke-linecap:butt;stroke-linejoin:miter;stroke-opacity:1"
       d="m 281.61975,432.48456 60,-60"
       id="path3634" />
    <path
       style="fill:none;stroke:#000000;stroke-width:1px;stroke-linecap:butt;stroke-linejoin:miter;stroke-opacity:1"
       d="m 461.61975,372.48456 -120,-60 60,60 -60,0 60,60"
       id="path3636" />
    <path
       style="fill:none;stroke:#000000;stroke-width:1px;stroke-linecap:butt;stroke-linejoin:miter;stroke-opacity:1"
       d="m 341.47352,374.78663 120.14623,57.69793"
       id="path3638" />
    <path
       style="fill:none;stroke:#000000;stroke-width:1px;stroke-linecap:butt;stroke-linejoin:miter;stroke-opacity:1"
       d="m 402.86202,371.7172 58.75773,0.76736 c 30.81904,62.67339 30.06137,62.66145 0,120"
       id="path3640"
       sodipodi:nodetypes="ccc" />
    <path
       style="fill:none;stroke:#000000;stroke-width:1px;stroke-linecap:butt;stroke-linejoin:miter;stroke-opacity:1"
       d="m 463.48317,370.18249 c 36.75136,50.14282 112.60673,93.04416 -61.86342,182.30207"
       id="path3642"
       sodipodi:nodetypes="cc" />
    <path
       style="fill:none;stroke:#000000;stroke-width:1px;stroke-linecap:butt;stroke-linejoin:miter;stroke-opacity:1"
       d="m 461.61975,372.48456 0,60 0,60"
       id="path3648" />
    <path
       style="fill:none;stroke:#000000;stroke-width:1px;stroke-linecap:butt;stroke-linejoin:miter;stroke-opacity:1"
       d="m 461.61975,492.48456 -60,0"
       id="path3650" />
    <path
       style="fill:none;stroke:#000000;stroke-width:1px;stroke-linecap:butt;stroke-linejoin:miter;stroke-opacity:1"
       d="m 341.61975,492.48456 60,-60"
       id="path3652" />
    <path
       style="fill:none;stroke:#000000;stroke-width:1px;stroke-linecap:butt;stroke-linejoin:miter;stroke-opacity:1"
       d="m 461.61975,432.48456 -60,60"
       id="path3654" />
    <path
       style="fill:none;stroke:#000000;stroke-width:1px;stroke-linecap:butt;stroke-linejoin:miter;stroke-opacity:1"
       d="m 341.61975,492.48456 120,-60"
       id="path3656" />
    <path
       style="fill:none;stroke:#000000;stroke-width:1px;stroke-linecap:butt;stroke-linejoin:miter;stroke-opacity:1"
       d="m 401.61975,432.48456 60,0"
       id="path3658" />
    <path
       style="fill:none;stroke:#000000;stroke-width:1px;stroke-linecap:butt;stroke-linejoin:miter;stroke-opacity:1"
       d="m 342.24088,493.72684 59.37887,58.75772 -60,0 c 86.9204,65.09434 124.32131,-34.57092 60,-60"
       id="path3660"
       sodipodi:nodetypes="cccc" />
    <path
       style="fill:none;stroke:#000000;stroke-width:1px;stroke-linecap:butt;stroke-linejoin:miter;stroke-opacity:1"
       d="m 341.61975,492.48456 60,0"
       id="path3662" />
    <path
       sodipodi:type="arc"
       style="fill:#80b3ff;stroke:#80b3ff;stroke-width:1.50000000000000000;stroke-miterlimit:4;stroke-opacity:1;stroke-dasharray:none;stroke-dashoffset:0;fill-opacity:1"
       id="path2816"
       sodipodi:cx="281.61975"
       sodipodi:cy="372.48456"
       sodipodi:rx="3.0694249"
       sodipodi:ry="3.0694249"
       d="m 284.68918,372.48456 a 3.0694249,3.0694249 0 1 1 -6.13885,0 3.0694249,3.0694249 0 1 1 6.13885,0 z" />
    <path
       d="m 284.68918,372.48456 a 3.0694249,3.0694249 0 1 1 -6.13885,0 3.0694249,3.0694249 0 1 1 6.13885,0 z"
       sodipodi:ry="3.0694249"
       sodipodi:rx="3.0694249"
       sodipodi:cy="372.48456"
       sodipodi:cx="281.61975"
       id="path3590"
       style="fill:#000000;fill-opacity:1;stroke:#000000;stroke-width:1.5;stroke-miterlimit:4;stroke-opacity:1;stroke-dasharray:none;stroke-dashoffset:0"
       sodipodi:type="arc"
       transform="translate(60,0)" />
    <path
       transform="translate(60,-60)"
       sodipodi:type="arc"
       style="fill:#000000;fill-opacity:1;stroke:#000000;stroke-width:1.5;stroke-miterlimit:4;stroke-opacity:1;stroke-dasharray:none;stroke-dashoffset:0"
       id="path3592"
       sodipodi:cx="281.61975"
       sodipodi:cy="372.48456"
       sodipodi:rx="3.0694249"
       sodipodi:ry="3.0694249"
       d="m 284.68918,372.48456 a 3.0694249,3.0694249 0 1 1 -6.13885,0 3.0694249,3.0694249 0 1 1 6.13885,0 z" />
    <path
       transform="translate(120,0)"
       sodipodi:type="arc"
       style="fill:#80b3ff;fill-opacity:1;stroke:#80b3ff;stroke-width:1.50000000000000000;stroke-miterlimit:4;stroke-opacity:1;stroke-dasharray:none;stroke-dashoffset:0"
       id="path3594"
       sodipodi:cx="281.61975"
       sodipodi:cy="372.48456"
       sodipodi:rx="3.0694249"
       sodipodi:ry="3.0694249"
       d="m 284.68918,372.48456 a 3.0694249,3.0694249 0 1 1 -6.13885,0 3.0694249,3.0694249 0 1 1 6.13885,0 z" />
    <path
       d="m 284.68918,372.48456 a 3.0694249,3.0694249 0 1 1 -6.13885,0 3.0694249,3.0694249 0 1 1 6.13885,0 z"
       sodipodi:ry="3.0694249"
       sodipodi:rx="3.0694249"
       sodipodi:cy="372.48456"
       sodipodi:cx="281.61975"
       id="path3596"
       style="fill:#000000;fill-opacity:1;stroke:#000000;stroke-width:1.5;stroke-miterlimit:4;stroke-opacity:1;stroke-dasharray:none;stroke-dashoffset:0"
       sodipodi:type="arc"
       transform="translate(180,0)" />
    <path
       transform="translate(180,60)"
       sodipodi:type="arc"
       style="fill:#80b3ff;fill-opacity:1;stroke:#80b3ff;stroke-width:1.50000000000000000;stroke-miterlimit:4;stroke-opacity:1;stroke-dasharray:none;stroke-dashoffset:0"
       id="path3598"
       sodipodi:cx="281.61975"
       sodipodi:cy="372.48456"
       sodipodi:rx="3.0694249"
       sodipodi:ry="3.0694249"
       d="m 284.68918,372.48456 a 3.0694249,3.0694249 0 1 1 -6.13885,0 3.0694249,3.0694249 0 1 1 6.13885,0 z" />
    <path
       d="m 284.68918,372.48456 a 3.0694249,3.0694249 0 1 1 -6.13885,0 3.0694249,3.0694249 0 1 1 6.13885,0 z"
       sodipodi:ry="3.0694249"
       sodipodi:rx="3.0694249"
       sodipodi:cy="372.48456"
       sodipodi:cx="281.61975"
       id="path3600"
       style="fill:#000000;fill-opacity:1;stroke:#000000;stroke-width:1.5;stroke-miterlimit:4;stroke-opacity:1;stroke-dasharray:none;stroke-dashoffset:0"
       sodipodi:type="arc"
       transform="translate(180,120)" />
    <path
       d="m 284.68918,372.48456 a 3.0694249,3.0694249 0 1 1 -6.13885,0 3.0694249,3.0694249 0 1 1 6.13885,0 z"
       sodipodi:ry="3.0694249"
       sodipodi:rx="3.0694249"
       sodipodi:cy="372.48456"
       sodipodi:cx="281.61975"
       id="path3602"
       style="fill:#000000;fill-opacity:1;stroke:#000000;stroke-width:1.5;stroke-miterlimit:4;stroke-opacity:1;stroke-dasharray:none;stroke-dashoffset:0"
       sodipodi:type="arc"
       transform="translate(0,60)" />
    <path
       transform="translate(60,60)"
       sodipodi:type="arc"
       style="fill:#80b3ff;fill-opacity:1;stroke:#80b3ff;stroke-width:1.50000000000000000;stroke-miterlimit:4;stroke-opacity:1;stroke-dasharray:none;stroke-dashoffset:0"
       id="path3604"
       sodipodi:cx="281.61975"
       sodipodi:cy="372.48456"
       sodipodi:rx="3.0694249"
       sodipodi:ry="3.0694249"
       d="m 284.68918,372.48456 a 3.0694249,3.0694249 0 1 1 -6.13885,0 3.0694249,3.0694249 0 1 1 6.13885,0 z" />
    <path
       d="m 284.68918,372.48456 a 3.0694249,3.0694249 0 1 1 -6.13885,0 3.0694249,3.0694249 0 1 1 6.13885,0 z"
       sodipodi:ry="3.0694249"
       sodipodi:rx="3.0694249"
       sodipodi:cy="372.48456"
       sodipodi:cx="281.61975"
       id="path3606"
       style="fill:#000000;fill-opacity:1;stroke:#000000;stroke-width:1.5;stroke-miterlimit:4;stroke-opacity:1;stroke-dasharray:none;stroke-dashoffset:0"
       sodipodi:type="arc"
       transform="translate(120,60)" />
    <path
       transform="translate(0,120)"
       sodipodi:type="arc"
       style="fill:#80b3ff;fill-opacity:1;stroke:#80b3ff;stroke-width:1.50000000000000000;stroke-miterlimit:4;stroke-opacity:1;stroke-dasharray:none;stroke-dashoffset:0"
       id="path3608"
       sodipodi:cx="281.61975"
       sodipodi:cy="372.48456"
       sodipodi:rx="3.0694249"
       sodipodi:ry="3.0694249"
       d="m 284.68918,372.48456 a 3.0694249,3.0694249 0 1 1 -6.13885,0 3.0694249,3.0694249 0 1 1 6.13885,0 z" />
    <path
       d="m 284.68918,372.48456 a 3.0694249,3.0694249 0 1 1 -6.13885,0 3.0694249,3.0694249 0 1 1 6.13885,0 z"
       sodipodi:ry="3.0694249"
       sodipodi:rx="3.0694249"
       sodipodi:cy="372.48456"
       sodipodi:cx="281.61975"
       id="path3610"
       style="fill:#000000;fill-opacity:1;stroke:#000000;stroke-width:1.5;stroke-miterlimit:4;stroke-opacity:1;stroke-dasharray:none;stroke-dashoffset:0"
       sodipodi:type="arc"
       transform="translate(60,120)" />
    <path
       transform="translate(120,120)"
       sodipodi:type="arc"
       style="fill:#000000;fill-opacity:1;stroke:#000000;stroke-width:1.5;stroke-miterlimit:4;stroke-opacity:1;stroke-dasharray:none;stroke-dashoffset:0"
       id="path3612"
       sodipodi:cx="281.61975"
       sodipodi:cy="372.48456"
       sodipodi:rx="3.0694249"
       sodipodi:ry="3.0694249"
       d="m 284.68918,372.48456 a 3.0694249,3.0694249 0 1 1 -6.13885,0 3.0694249,3.0694249 0 1 1 6.13885,0 z" />
    <path
       transform="translate(60,180)"
       sodipodi:type="arc"
       style="fill:#000000;fill-opacity:1;stroke:#000000;stroke-width:1.5;stroke-miterlimit:4;stroke-opacity:1;stroke-dasharray:none;stroke-dashoffset:0"
       id="path3614"
       sodipodi:cx="281.61975"
       sodipodi:cy="372.48456"
       sodipodi:rx="3.0694249"
       sodipodi:ry="3.0694249"
       d="m 284.68918,372.48456 a 3.0694249,3.0694249 0 1 1 -6.13885,0 3.0694249,3.0694249 0 1 1 6.13885,0 z" />
    <path
       d="m 284.68918,372.48456 a 3.0694249,3.0694249 0 1 1 -6.13885,0 3.0694249,3.0694249 0 1 1 6.13885,0 z"
       sodipodi:ry="3.0694249"
       sodipodi:rx="3.0694249"
       sodipodi:cy="372.48456"
       sodipodi:cx="281.61975"
       id="path3616"
       style="fill:#80b3ff;fill-opacity:1;stroke:#80b3ff;stroke-width:1.50000000000000000;stroke-miterlimit:4;stroke-opacity:1;stroke-dasharray:none;stroke-dashoffset:0"
       sodipodi:type="arc"
       transform="translate(120,180)" />
  </g>
</svg>
