<?xml version="1.0" encoding="UTF-8" standalone="no"?>
<!-- Created with Inkscape (http://www.inkscape.org/) -->

<svg
   xmlns:dc="http://purl.org/dc/elements/1.1/"
   xmlns:cc="http://creativecommons.org/ns#"
   xmlns:rdf="http://www.w3.org/1999/02/22-rdf-syntax-ns#"
   xmlns:svg="http://www.w3.org/2000/svg"
   xmlns="http://www.w3.org/2000/svg"
   xmlns:sodipodi="http://sodipodi.sourceforge.net/DTD/sodipodi-0.dtd"
   xmlns:inkscape="http://www.inkscape.org/namespaces/inkscape"
   width="210mm"
   height="297mm"
   id="svg2"
   version="1.1"
   inkscape:version="0.47 r22583"
   sodipodi:docname="kap6BspVC.svg">
  <defs
     id="defs4">
    <inkscape:perspective
       sodipodi:type="inkscape:persp3d"
       inkscape:vp_x="0 : 526.18109 : 1"
       inkscape:vp_y="0 : 1000 : 0"
       inkscape:vp_z="744.09448 : 526.18109 : 1"
       inkscape:persp3d-origin="372.04724 : 350.78739 : 1"
       id="perspective10" />
  </defs>
  <sodipodi:namedview
     id="base"
     pagecolor="#ffffff"
     bordercolor="#666666"
     borderopacity="1.0"
     inkscape:pageopacity="0.0"
     inkscape:pageshadow="2"
     inkscape:zoom="1.8429687"
     inkscape:cx="228.44117"
     inkscape:cy="617.6685"
     inkscape:document-units="px"
     inkscape:current-layer="layer1"
     showgrid="false"
     inkscape:object-nodes="false"
     inkscape:snap-object-midpoints="true"
     inkscape:window-width="1343"
     inkscape:window-height="902"
     inkscape:window-x="208"
     inkscape:window-y="22"
     inkscape:window-maximized="0"
     inkscape:snap-nodes="true" />
  <metadata
     id="metadata7">
    <rdf:RDF>
      <cc:Work
         rdf:about="">
        <dc:format>image/svg+xml</dc:format>
        <dc:type
           rdf:resource="http://purl.org/dc/dcmitype/StillImage" />
        <dc:title></dc:title>
      </cc:Work>
    </rdf:RDF>
  </metadata>
  <g
     inkscape:label="Ebene 1"
     inkscape:groupmode="layer"
     id="layer1">
    <g
       id="g3025">
      <path
         id="path2983"
         d="m 305.50275,463.95552 0,-120"
         style="fill:none;stroke:#000000;stroke-width:1px;stroke-linecap:butt;stroke-linejoin:miter;stroke-opacity:1" />
      <path
         id="path2977"
         d="m 225.50275,343.95552 -20,60"
         style="fill:none;stroke:#000000;stroke-width:1px;stroke-linecap:butt;stroke-linejoin:miter;stroke-opacity:1" />
      <path
         id="path2979"
         d="m 265.50275,403.95552 -40,-60"
         style="fill:none;stroke:#000000;stroke-width:1px;stroke-linecap:butt;stroke-linejoin:miter;stroke-opacity:1" />
      <path
         id="path2981"
         d="m 305.50275,463.95552 -40,-59.9997 -60.94149,-0.004 20.94149,60.0037 80,0 z"
         style="fill:none;stroke:#000000;stroke-width:1px;stroke-linecap:butt;stroke-linejoin:miter;stroke-opacity:1" />
      <path
         sodipodi:nodetypes="cc"
         id="path2987"
         d="m 205.64647,404.49442 c -61.69993,-61.69993 56.89646,-134.94749 99.85628,-60.5389"
         style="fill:none;stroke:#000000;stroke-width:1px;stroke-linecap:butt;stroke-linejoin:miter;stroke-opacity:1" />
      <path
         id="path2989"
         d="m 225.50275,343.95552 80,0"
         style="fill:none;stroke:#000000;stroke-width:1px;stroke-linecap:butt;stroke-linejoin:miter;stroke-opacity:1" />
      <path
         id="path2991"
         d="m 305.50275,343.95552 80,0"
         style="fill:none;stroke:#000000;stroke-width:1px;stroke-linecap:butt;stroke-linejoin:miter;stroke-opacity:1" />
      <path
         id="path2993"
         d="m 425.50275,403.95552 -40,-60"
         style="fill:none;stroke:#000000;stroke-width:1px;stroke-linecap:butt;stroke-linejoin:miter;stroke-opacity:1" />
      <path
         id="path2997"
         d="m 345.50275,403.95552 40,-60"
         style="fill:none;stroke:#000000;stroke-width:1px;stroke-linecap:butt;stroke-linejoin:miter;stroke-opacity:1" />
      <path
         id="path2999"
         d="m 423.7728,402.86662 -38.27005,61.0889 -40,-60 -40,60 80,0"
         style="fill:none;stroke:#000000;stroke-width:1px;stroke-linecap:butt;stroke-linejoin:miter;stroke-opacity:1" />
      <path
         style="fill:none;stroke:#000000;stroke-width:1px;stroke-linecap:butt;stroke-linejoin:miter;stroke-opacity:1"
         d="m 425.50275,403.95552 c 61.69993,-61.69993 -77.04018,-134.40859 -120,-60"
         id="path3001"
         sodipodi:nodetypes="cc" />
    </g>
    <path
       transform="translate(-56.116997,-28.529037)"
       sodipodi:type="arc"
       style="fill:#000000;fill-opacity:1;stroke:#000000;stroke-width:1.50000000000000000;stroke-miterlimit:4;stroke-opacity:1;stroke-dasharray:none;stroke-dashoffset:0"
       id="path3592"
       sodipodi:cx="281.61975"
       sodipodi:cy="372.48456"
       sodipodi:rx="3.0694249"
       sodipodi:ry="3.0694249"
       d="m 284.68918,372.48456 a 3.0694249,3.0694249 0 1 1 -6.13885,0 3.0694249,3.0694249 0 1 1 6.13885,0 z" />
    <path
       d="m 284.68918,372.48456 a 3.0694249,3.0694249 0 1 1 -6.13885,0 3.0694249,3.0694249 0 1 1 6.13885,0 z"
       sodipodi:ry="3.0694249"
       sodipodi:rx="3.0694249"
       sodipodi:cy="372.48456"
       sodipodi:cx="281.61975"
       id="path2938"
       style="fill:#80b3ff;fill-opacity:1;stroke:#80b3ff;stroke-width:1.50000000000000000;stroke-miterlimit:4;stroke-opacity:1;stroke-dasharray:none;stroke-dashoffset:0"
       sodipodi:type="arc"
       transform="translate(23.883003,-28.529037)" />
    <path
       transform="translate(103.883,-28.529037)"
       sodipodi:type="arc"
       style="fill:#80b3ff;fill-opacity:1;stroke:#80b3ff;stroke-width:1.50000000000000000;stroke-miterlimit:4;stroke-opacity:1;stroke-dasharray:none;stroke-dashoffset:0"
       id="path2940"
       sodipodi:cx="281.61975"
       sodipodi:cy="372.48456"
       sodipodi:rx="3.0694249"
       sodipodi:ry="3.0694249"
       d="m 284.68918,372.48456 a 3.0694249,3.0694249 0 1 1 -6.13885,0 3.0694249,3.0694249 0 1 1 6.13885,0 z" />
    <path
       d="m 284.68918,372.48456 a 3.0694249,3.0694249 0 1 1 -6.13885,0 3.0694249,3.0694249 0 1 1 6.13885,0 z"
       sodipodi:ry="3.0694249"
       sodipodi:rx="3.0694249"
       sodipodi:cy="372.48456"
       sodipodi:cx="281.61975"
       id="path2942"
       style="fill:#80b3ff;fill-opacity:1;stroke:#80b3ff;stroke-width:1.50000000000000000;stroke-miterlimit:4;stroke-opacity:1;stroke-dasharray:none;stroke-dashoffset:0"
       sodipodi:type="arc"
       transform="translate(-76.116997,31.470963)" />
    <path
       transform="translate(-16.116997,31.470963)"
       sodipodi:type="arc"
       style="fill:#80b3ff;fill-opacity:1;stroke:#80b3ff;stroke-width:1.50000000000000000;stroke-miterlimit:4;stroke-opacity:1;stroke-dasharray:none;stroke-dashoffset:0"
       id="path2944"
       sodipodi:cx="281.61975"
       sodipodi:cy="372.48456"
       sodipodi:rx="3.0694249"
       sodipodi:ry="3.0694249"
       d="m 284.68918,372.48456 a 3.0694249,3.0694249 0 1 1 -6.13885,0 3.0694249,3.0694249 0 1 1 6.13885,0 z" />
    <path
       d="m 284.68918,372.48456 a 3.0694249,3.0694249 0 1 1 -6.13885,0 3.0694249,3.0694249 0 1 1 6.13885,0 z"
       sodipodi:ry="3.0694249"
       sodipodi:rx="3.0694249"
       sodipodi:cy="372.48456"
       sodipodi:cx="281.61975"
       id="path2946"
       style="fill:#80b3ff;fill-opacity:1;stroke:#80b3ff;stroke-width:1.50000000000000000;stroke-miterlimit:4;stroke-opacity:1;stroke-dasharray:none;stroke-dashoffset:0"
       sodipodi:type="arc"
       transform="translate(63.883003,31.470963)" />
    <path
       transform="translate(143.883,31.470963)"
       sodipodi:type="arc"
       style="fill:#000000;fill-opacity:1;stroke:#000000;stroke-width:1.50000000000000000;stroke-miterlimit:4;stroke-opacity:1;stroke-dasharray:none;stroke-dashoffset:0"
       id="path2948"
       sodipodi:cx="281.61975"
       sodipodi:cy="372.48456"
       sodipodi:rx="3.0694249"
       sodipodi:ry="3.0694249"
       d="m 284.68918,372.48456 a 3.0694249,3.0694249 0 1 1 -6.13885,0 3.0694249,3.0694249 0 1 1 6.13885,0 z" />
    <path
       d="m 284.68918,372.48456 a 3.0694249,3.0694249 0 1 1 -6.13885,0 3.0694249,3.0694249 0 1 1 6.13885,0 z"
       sodipodi:ry="3.0694249"
       sodipodi:rx="3.0694249"
       sodipodi:cy="372.48456"
       sodipodi:cx="281.61975"
       id="path2950"
       style="fill:#000000;fill-opacity:1;stroke:#000000;stroke-width:1.50000000000000000;stroke-miterlimit:4;stroke-opacity:1;stroke-dasharray:none;stroke-dashoffset:0"
       sodipodi:type="arc"
       transform="translate(-56.116997,91.470963)" />
    <path
       transform="translate(23.883003,91.470963)"
       sodipodi:type="arc"
       style="fill:#80b3ff;fill-opacity:1;stroke:#80b3ff;stroke-width:1.50000000000000000;stroke-miterlimit:4;stroke-opacity:1;stroke-dasharray:none;stroke-dashoffset:0"
       id="path2952"
       sodipodi:cx="281.61975"
       sodipodi:cy="372.48456"
       sodipodi:rx="3.0694249"
       sodipodi:ry="3.0694249"
       d="m 284.68918,372.48456 a 3.0694249,3.0694249 0 1 1 -6.13885,0 3.0694249,3.0694249 0 1 1 6.13885,0 z" />
    <path
       d="m 284.68918,372.48456 a 3.0694249,3.0694249 0 1 1 -6.13885,0 3.0694249,3.0694249 0 1 1 6.13885,0 z"
       sodipodi:ry="3.0694249"
       sodipodi:rx="3.0694249"
       sodipodi:cy="372.48456"
       sodipodi:cx="281.61975"
       id="path2954"
       style="fill:#80b3ff;fill-opacity:1;stroke:#80b3ff;stroke-width:1.50000000000000000;stroke-miterlimit:4;stroke-opacity:1;stroke-dasharray:none;stroke-dashoffset:0"
       sodipodi:type="arc"
       transform="translate(103.883,91.470963)" />
  </g>
</svg>
