<?xml version="1.0" encoding="UTF-8" standalone="no"?>
<!-- Created with Inkscape (http://www.inkscape.org/) -->

<svg
   xmlns:dc="http://purl.org/dc/elements/1.1/"
   xmlns:cc="http://creativecommons.org/ns#"
   xmlns:rdf="http://www.w3.org/1999/02/22-rdf-syntax-ns#"
   xmlns:svg="http://www.w3.org/2000/svg"
   xmlns="http://www.w3.org/2000/svg"
   xmlns:sodipodi="http://sodipodi.sourceforge.net/DTD/sodipodi-0.dtd"
   xmlns:inkscape="http://www.inkscape.org/namespaces/inkscape"
   width="210mm"
   height="297mm"
   id="svg2"
   version="1.1"
   inkscape:version="0.47 r22583"
   sodipodi:docname="Neues Dokument 1">
  <defs
     id="defs4">
    <inkscape:perspective
       sodipodi:type="inkscape:persp3d"
       inkscape:vp_x="0 : 526.18109 : 1"
       inkscape:vp_y="0 : 1000 : 0"
       inkscape:vp_z="744.09448 : 526.18109 : 1"
       inkscape:persp3d-origin="372.04724 : 350.78739 : 1"
       id="perspective10" />
  </defs>
  <sodipodi:namedview
     id="base"
     pagecolor="#ffffff"
     bordercolor="#666666"
     borderopacity="1.0"
     inkscape:pageopacity="0.0"
     inkscape:pageshadow="2"
     inkscape:zoom="2.8765625"
     inkscape:cx="266.56708"
     inkscape:cy="645.14938"
     inkscape:document-units="px"
     inkscape:current-layer="layer1"
     showgrid="false"
     inkscape:object-paths="true"
     inkscape:snap-intersection-paths="true"
     inkscape:object-nodes="true"
     inkscape:snap-smooth-nodes="true"
     inkscape:window-width="1100"
     inkscape:window-height="754"
     inkscape:window-x="265"
     inkscape:window-y="82"
     inkscape:window-maximized="0" />
  <metadata
     id="metadata7">
    <rdf:RDF>
      <cc:Work
         rdf:about="">
        <dc:format>image/svg+xml</dc:format>
        <dc:type
           rdf:resource="http://purl.org/dc/dcmitype/StillImage" />
        <dc:title></dc:title>
      </cc:Work>
    </rdf:RDF>
  </metadata>
  <g
     inkscape:label="Ebene 1"
     inkscape:groupmode="layer"
     id="layer1">
    <path
       style="fill:#cccccc;fill-opacity:1;fill-rule:nonzero;stroke:#000000;stroke-width:1;stroke-miterlimit:4;stroke-dashoffset:0;stroke-opacity:1"
       d="m 187.02879,419.66257 c 0,0.95997 -0.19455,1.8745 -0.54638,2.70632 -0.35183,0.83181 -0.86093,1.58091 -1.49003,2.21001 -0.6291,0.6291 -1.3782,1.1382 -2.21001,1.49003 -0.83182,0.35183 -1.74635,0.54638 -2.70632,0.54638 -3.83989,0 -6.95274,-3.11285 -6.95274,-6.95274 0,-3.8399 3.11285,-6.95275 6.95274,-6.95275 0.95997,0 1.8745,0.19455 2.70632,0.54638 0.83181,0.35183 1.58091,0.86093 2.21001,1.49003 0.6291,0.6291 1.1382,1.3782 1.49003,2.21001 0.35183,0.83182 0.54638,1.74635 0.54638,2.70633 z"
       id="path2816"
       sodipodi:nodetypes="csssssssssc" />
    <path
       transform="translate(120,0)"
       style="fill:#cccccc;fill-opacity:1;fill-rule:nonzero;stroke:#000000;stroke-width:1;stroke-miterlimit:4;stroke-dashoffset:0;stroke-opacity:1"
       d="m 187.02879,419.66257 c 0,3.83989 -3.11285,6.95274 -6.95274,6.95274 -0.95997,0 -1.87451,-0.19455 -2.70632,-0.54638 -0.83181,-0.35183 -1.58091,-0.86093 -2.21001,-1.49003 -0.6291,-0.6291 -1.1382,-1.3782 -1.49003,-2.21001 -0.35183,-0.83182 -0.54638,-1.74635 -0.54638,-2.70632 0,-0.95998 0.19455,-1.87451 0.54638,-2.70633 0.35183,-0.83181 0.86093,-1.58091 1.49003,-2.21001 0.6291,-0.6291 1.3782,-1.1382 2.21001,-1.49003 0.83181,-0.35183 1.74635,-0.54638 2.70632,-0.54638 3.83989,0 6.95274,3.11285 6.95274,6.95275 z"
       id="path3590"
       sodipodi:nodetypes="csssssssssc" />
    <path
       transform="translate(60,60)"
       style="fill:#cccccc;fill-opacity:1;fill-rule:nonzero;stroke:#000000;stroke-width:1;stroke-miterlimit:4;stroke-dashoffset:0;stroke-opacity:1"
       d="m 187.02879,419.66257 c 0,3.83989 -3.11285,6.95274 -6.95274,6.95274 -3.83989,0 -6.95274,-3.11285 -6.95274,-6.95274 0,-0.95998 0.19455,-1.87451 0.54638,-2.70633 0.35183,-0.83181 0.86093,-1.58091 1.49003,-2.21001 0.6291,-0.6291 1.3782,-1.1382 2.21001,-1.49003 0.83181,-0.35183 1.74635,-0.54638 2.70632,-0.54638 0.95997,0 1.8745,0.19455 2.70632,0.54638 0.83181,0.35183 1.58091,0.86093 2.21001,1.49003 0.6291,0.6291 1.1382,1.3782 1.49003,2.21001 0.35183,0.83182 0.54638,1.74635 0.54638,2.70633 z"
       id="path3592"
       sodipodi:nodetypes="csssssssssc" />
    <path
       style="fill:none;stroke:#000000;stroke-width:1px;stroke-linecap:butt;stroke-linejoin:miter;stroke-opacity:1"
       d="m 184.99238,424.5789 48.67731,52.37734"
       id="path3597" />
    <path
       style="fill:none;stroke:#000000;stroke-width:1px;stroke-linecap:butt;stroke-linejoin:miter;stroke-opacity:1"
       d="m 246.48241,476.95624 50.88732,-50.88731"
       id="path3599" />
    <path
       style="fill:none;stroke:#000000;stroke-width:1px;stroke-linecap:butt;stroke-linejoin:miter;stroke-opacity:1"
       d="m 293.66969,422.36889 -50.88732,50.88731 0,0"
       id="path3601"
       sodipodi:nodetypes="ccc" />
    <path
       style="fill:none;stroke:#000000;stroke-width:1px;stroke-linecap:butt;stroke-linejoin:miter;stroke-opacity:1"
       d="m 295.15972,414.74623 -110.16734,10e-6"
       id="path3603"
       sodipodi:nodetypes="cc" />
    <path
       style="fill:none;stroke:#000000;stroke-width:1px;stroke-linecap:butt;stroke-linejoin:miter;stroke-opacity:1"
       d="m 180.07605,426.61531 c -5.71329,49.69276 19.22641,51.1084 53.04726,53.04726 l 0,0"
       id="path3605"
       sodipodi:nodetypes="ccc" />
    <path
       style="fill:none;stroke:#000000;stroke-width:1px;stroke-linecap:butt;stroke-linejoin:miter;stroke-opacity:1"
       d="m 180.07605,412.70982 c 38.01797,-40.63156 78.2777,-35.3072 120,0"
       id="path3607"
       sodipodi:nodetypes="cc" />
    <path
       style="fill:none;stroke:#000000;stroke-width:1px;stroke-linecap:butt;stroke-linejoin:miter;stroke-opacity:1"
       d="m 247.02879,479.66257 c 23.78808,5.43733 78.44285,-11.25041 53.04726,-53.04726"
       id="path3609"
       sodipodi:nodetypes="cc" />
  </g>
</svg>
