<?xml version="1.0" encoding="UTF-8" standalone="no"?>
<!-- Created with Inkscape (http://www.inkscape.org/) -->

<svg
   xmlns:dc="http://purl.org/dc/elements/1.1/"
   xmlns:cc="http://creativecommons.org/ns#"
   xmlns:rdf="http://www.w3.org/1999/02/22-rdf-syntax-ns#"
   xmlns:svg="http://www.w3.org/2000/svg"
   xmlns="http://www.w3.org/2000/svg"
   xmlns:sodipodi="http://sodipodi.sourceforge.net/DTD/sodipodi-0.dtd"
   xmlns:inkscape="http://www.inkscape.org/namespaces/inkscape"
   width="210mm"
   height="297mm"
   id="svg2"
   version="1.1"
   inkscape:version="0.47 r22583"
   sodipodi:docname="Neues Dokument 1">
  <defs
     id="defs4">
    <inkscape:perspective
       sodipodi:type="inkscape:persp3d"
       inkscape:vp_x="0 : 526.18109 : 1"
       inkscape:vp_y="0 : 1000 : 0"
       inkscape:vp_z="744.09448 : 526.18109 : 1"
       inkscape:persp3d-origin="372.04724 : 350.78739 : 1"
       id="perspective10" />
  </defs>
  <sodipodi:namedview
     id="base"
     pagecolor="#ffffff"
     bordercolor="#666666"
     borderopacity="1.0"
     inkscape:pageopacity="0.0"
     inkscape:pageshadow="2"
     inkscape:zoom="1.9167969"
     inkscape:cx="281.91767"
     inkscape:cy="603.47259"
     inkscape:document-units="px"
     inkscape:current-layer="layer1"
     showgrid="false"
     inkscape:object-nodes="true"
     inkscape:snap-smooth-nodes="true"
     inkscape:window-width="1568"
     inkscape:window-height="929"
     inkscape:window-x="70"
     inkscape:window-y="16"
     inkscape:window-maximized="0" />
  <metadata
     id="metadata7">
    <rdf:RDF>
      <cc:Work
         rdf:about="">
        <dc:format>image/svg+xml</dc:format>
        <dc:type
           rdf:resource="http://purl.org/dc/dcmitype/StillImage" />
        <dc:title></dc:title>
      </cc:Work>
    </rdf:RDF>
  </metadata>
  <g
     inkscape:label="Ebene 1"
     inkscape:groupmode="layer"
     id="layer1">
    <path
       transform="matrix(1.4166667,0,0,1.4166667,-76.51654,-185.02321)"
       style="fill:#cccccc;fill-opacity:1;fill-rule:nonzero;stroke:#000000;stroke-width:0.70588237"
       d="m 196.16058,444.05569 c 0,6.9151 -5.60579,12.52089 -12.52089,12.52089 -6.91509,0 -12.52088,-5.60579 -12.52088,-12.52089 0,-6.91509 5.60579,-12.52088 12.52088,-12.52088 3.45755,0 6.58777,1.40145 8.85361,3.66728 2.26583,2.26584 3.66728,5.39606 3.66728,8.8536 z"
       id="path2816"
       sodipodi:nodetypes="cssssc" />
    <g
       id="g2832"
       transform="translate(94.453313,-123.28005)">
      <text
         xml:space="preserve"
         style="font-size:22px;font-style:normal;font-weight:normal;text-align:start;writing-mode:lr-tb;text-anchor:start;fill:#000000;fill-opacity:1;stroke:none;font-family:Bitstream Vera Sans"
         x="79.820663"
         y="571.35138"
         id="text2834"><tspan
           sodipodi:role="line"
           id="tspan2836"
           x="79.820663"
           y="571.35138">v</tspan></text>
      <text
         xml:space="preserve"
         style="font-size:22px;font-style:normal;font-weight:normal;text-align:start;writing-mode:lr-tb;text-anchor:start;fill:#000000;fill-opacity:1;stroke:none;font-family:Bitstream Vera Sans"
         x="91.369492"
         y="575.35138"
         id="text2838"><tspan
           sodipodi:role="line"
           id="tspan2840"
           x="91.369492"
           y="575.35138"
           style="font-size:12px">1</tspan></text>
    </g>
    <path
       transform="matrix(1.4166667,0,0,1.4166667,43.48346,-185.02321)"
       style="fill:#cccccc;fill-opacity:1;fill-rule:nonzero;stroke:#000000;stroke-width:0.70588237"
       d="m 196.16058,444.05569 c 0,6.9151 -5.60579,12.52089 -12.52089,12.52089 -6.91509,0 -12.52088,-5.60579 -12.52088,-12.52089 0,-6.91509 5.60579,-12.52088 12.52088,-12.52088 3.45755,0 6.58777,1.40145 8.85361,3.66728 2.26583,2.26584 3.66728,5.39606 3.66728,8.8536 z"
       id="path2852"
       sodipodi:nodetypes="cssssc" />
    <g
       transform="translate(214.38007,-123.36501)"
       id="g2854">
      <text
         id="text2856"
         y="571.35138"
         x="79.820663"
         style="font-size:22px;font-style:normal;font-weight:normal;text-align:start;writing-mode:lr-tb;text-anchor:start;fill:#000000;fill-opacity:1;stroke:none;font-family:Bitstream Vera Sans"
         xml:space="preserve"><tspan
           y="571.35138"
           x="79.820663"
           id="tspan2858"
           sodipodi:role="line">v</tspan></text>
      <text
         id="text2860"
         y="575.35138"
         x="91.369492"
         style="font-size:22px;font-style:normal;font-weight:normal;text-align:start;writing-mode:lr-tb;text-anchor:start;fill:#000000;fill-opacity:1;stroke:none;font-family:Bitstream Vera Sans"
         xml:space="preserve"><tspan
           style="font-size:12px"
           y="575.35138"
           x="91.369492"
           id="tspan2862"
           sodipodi:role="line">3</tspan></text>
    </g>
    <path
       transform="matrix(1.4166667,0,0,1.4166667,103.48346,-265.02321)"
       style="fill:#cccccc;fill-opacity:1;fill-rule:nonzero;stroke:#000000;stroke-width:0.70588237"
       d="m 196.16058,444.05569 c 0,3.45755 -1.40145,6.58777 -3.66728,8.85361 -2.26584,2.26583 -5.39606,3.66728 -8.85361,3.66728 -3.45755,0 -6.58777,-1.40145 -8.8536,-3.66728 -2.26583,-2.26584 -3.66728,-5.39606 -3.66728,-8.85361 0,-6.91509 5.60579,-12.52088 12.52088,-12.52088 6.9151,0 12.52089,5.60579 12.52089,12.52088 z"
       id="path2880"
       sodipodi:nodetypes="csssssc" />
    <g
       transform="translate(274.42402,-203.36501)"
       id="g2882">
      <text
         id="text2884"
         y="571.35138"
         x="79.820663"
         style="font-size:22px;font-style:normal;font-weight:normal;text-align:start;writing-mode:lr-tb;text-anchor:start;fill:#000000;fill-opacity:1;stroke:none;font-family:Bitstream Vera Sans"
         xml:space="preserve"><tspan
           y="571.35138"
           x="79.820663"
           id="tspan2886"
           sodipodi:role="line">v</tspan></text>
      <text
         id="text2888"
         y="575.35138"
         x="91.369492"
         style="font-size:22px;font-style:normal;font-weight:normal;text-align:start;writing-mode:lr-tb;text-anchor:start;fill:#000000;fill-opacity:1;stroke:none;font-family:Bitstream Vera Sans"
         xml:space="preserve"><tspan
           style="font-size:12px"
           y="575.35138"
           x="91.369492"
           id="tspan2890"
           sodipodi:role="line">5</tspan></text>
    </g>
    <path
       transform="matrix(1.4166667,0,0,1.4166667,163.48346,-185.02321)"
       style="fill:#cccccc;fill-opacity:1;fill-rule:nonzero;stroke:#000000;stroke-width:0.70588237"
       d="m 196.16058,444.05569 c 0,6.9151 -5.60579,12.52089 -12.52089,12.52089 -6.91509,0 -12.52088,-5.60579 -12.52088,-12.52089 0,-1.72877 0.35036,-3.37571 0.98395,-4.87369 0.63359,-1.49798 1.55041,-2.84699 2.68333,-3.97991 1.13292,-1.13292 2.48193,-2.04974 3.97991,-2.68333 1.49798,-0.63359 3.14492,-0.98395 4.87369,-0.98395 6.9151,0 12.52089,5.60579 12.52089,12.52088 z"
       id="path2894"
       sodipodi:nodetypes="cssssssc" />
    <g
       id="g2896"
       transform="translate(334.23652,-123.28005)">
      <text
         xml:space="preserve"
         style="font-size:22px;font-style:normal;font-weight:normal;text-align:start;writing-mode:lr-tb;text-anchor:start;fill:#000000;fill-opacity:1;stroke:none;font-family:Bitstream Vera Sans"
         x="79.820663"
         y="571.35138"
         id="text2898"><tspan
           sodipodi:role="line"
           id="tspan2900"
           x="79.820663"
           y="571.35138">v</tspan></text>
      <text
         xml:space="preserve"
         style="font-size:22px;font-style:normal;font-weight:normal;text-align:start;writing-mode:lr-tb;text-anchor:start;fill:#000000;fill-opacity:1;stroke:none;font-family:Bitstream Vera Sans"
         x="91.369492"
         y="575.35138"
         id="text2902"><tspan
           sodipodi:role="line"
           id="tspan2904"
           x="91.369492"
           y="575.35138"
           style="font-size:12px">4</tspan></text>
    </g>
    <path
       sodipodi:type="arc"
       style="fill:#cccccc;fill-opacity:1;fill-rule:nonzero;stroke:#000000;stroke-width:0.70588237"
       id="path2866"
       sodipodi:cx="183.63969"
       sodipodi:cy="444.05569"
       sodipodi:rx="12.520888"
       sodipodi:ry="12.520888"
       d="m 196.16058,444.05569 a 12.520888,12.520888 0 1 1 -25.04177,0 12.520888,12.520888 0 1 1 25.04177,0 z"
       transform="matrix(1.4166667,0,0,1.4166667,-16.51654,-265.02321)" />
    <g
       id="g2868"
       transform="translate(154.50019,-203.28005)">
      <text
         xml:space="preserve"
         style="font-size:22px;font-style:normal;font-weight:normal;text-align:start;writing-mode:lr-tb;text-anchor:start;fill:#000000;fill-opacity:1;stroke:none;font-family:Bitstream Vera Sans"
         x="79.820663"
         y="571.35138"
         id="text2870"><tspan
           sodipodi:role="line"
           id="tspan2872"
           x="79.820663"
           y="571.35138">v</tspan></text>
      <text
         xml:space="preserve"
         style="font-size:22px;font-style:normal;font-weight:normal;text-align:start;writing-mode:lr-tb;text-anchor:start;fill:#000000;fill-opacity:1;stroke:none;font-family:Bitstream Vera Sans"
         x="91.369492"
         y="575.35138"
         id="text2874"><tspan
           sodipodi:role="line"
           id="tspan2876"
           x="91.369492"
           y="575.35138"
           style="font-size:12px">2</tspan></text>
    </g>
    <path
       transform="matrix(1.4166667,0,0,1.4166667,-16.51654,-265.02321)"
       style="fill:#cccccc;fill-opacity:1;fill-rule:nonzero;stroke:#000000;stroke-width:0.70588237"
       d="m 196.16058,444.05569 c 0,3.45755 -1.40145,6.58777 -3.66728,8.85361 -2.26584,2.26583 -5.39606,3.66728 -8.85361,3.66728 -3.45755,0 -6.58777,-1.40145 -8.8536,-3.66728 -2.26583,-2.26584 -3.66728,-5.39606 -3.66728,-8.85361 0,-6.91509 5.60579,-12.52088 12.52088,-12.52088 6.9151,0 12.52089,5.60579 12.52089,12.52088 z"
       id="path2988"
       sodipodi:nodetypes="csssssc" />
    <g
       transform="translate(154.50019,-203.28005)"
       id="g2990">
      <text
         id="text2992"
         y="571.35138"
         x="79.820663"
         style="font-size:22px;font-style:normal;font-weight:normal;text-align:start;writing-mode:lr-tb;text-anchor:start;fill:#000000;fill-opacity:1;stroke:none;font-family:Bitstream Vera Sans"
         xml:space="preserve"><tspan
           y="571.35138"
           x="79.820663"
           id="tspan2994"
           sodipodi:role="line">v</tspan></text>
      <text
         id="text2996"
         y="575.35138"
         x="91.369492"
         style="font-size:22px;font-style:normal;font-weight:normal;text-align:start;writing-mode:lr-tb;text-anchor:start;fill:#000000;fill-opacity:1;stroke:none;font-family:Bitstream Vera Sans"
         xml:space="preserve"><tspan
           style="font-size:12px"
           y="575.35138"
           x="91.369492"
           id="tspan2998"
           sodipodi:role="line">2</tspan></text>
    </g>
    <path
       style="fill:none;stroke:#000000;stroke-width:1px;stroke-linecap:butt;stroke-linejoin:miter;stroke-opacity:1"
       d="m 196.18231,431.5131 34.91478,-54.91479"
       id="path3051" />
    <path
       style="fill:none;stroke:#000000;stroke-width:1px;stroke-linecap:butt;stroke-linejoin:miter;stroke-opacity:1"
       d="m 256.18231,376.59831 151.1134,60.55299"
       id="path3053" />
    <path
       style="fill:none;stroke:#000000;stroke-width:1px;stroke-linecap:butt;stroke-linejoin:miter;stroke-opacity:1"
       d="m 416.7353,427.71171 -40.55299,-51.1134"
       id="path3055" />
    <path
       style="fill:none;stroke:#000000;stroke-width:1px;stroke-linecap:butt;stroke-linejoin:miter;stroke-opacity:1"
       d="M 351.09709,376.59831 316.18231,431.5131"
       id="path3057" />
  </g>
</svg>
